<svg  viewBox="0 0 1440 1024" fill="none" xmlns="http://www.w3.org/2000/svg">
<!-- width="1440" height="1024" -->
<g id="Desktop - 3" clip-path="url(#clip0)">
<rect width="1440" height="1024" fill="#F4F4F4"/>
<g id="Group 53">
<path id="Ellipse 1" d="M1670.46 716.149C1875.97 619.829 2041.5 488.362 2142.92 353.487C2244.23 218.771 2282.2 79.7046 2230.29 -31.0624C2178.37 -141.829 2047.2 -201.618 1878.85 -209.949C1710.3 -218.289 1503.35 -175.183 1297.84 -78.8626C1092.33 17.4581 926.804 148.925 825.377 283.8C724.07 418.515 686.097 557.582 738.012 668.349C789.927 779.116 921.102 838.905 1089.45 847.236C1258 855.576 1464.94 812.47 1670.46 716.149Z" fill="#F4F4F4" stroke="#B9966E" stroke-width="8"/>
<path id="Ellipse 2" d="M1093.5 1460C1352.17 1460 1562 1254.35 1562 1000.5C1562 746.652 1352.17 541 1093.5 541C834.829 541 625 746.652 625 1000.5C625 1254.35 834.829 1460 1093.5 1460Z" fill="#F4F4F4" stroke="#B9966E" stroke-width="8"/>
</g>
<g id="Group 6">
<path id="Ellipse 2_2" d="M255.5 738C514.171 738 724 532.348 724 278.5C724 24.6517 514.171 -181 255.5 -181C-3.17126 -181 -213 24.6517 -213 278.5C-213 532.348 -3.17126 738 255.5 738Z" fill="#F4F4F4" stroke="#B9966E" stroke-width="8"/>
<path id="Ellipse 1_2" d="M-57.1819 1217.4C-262.693 1121.08 -428.221 989.611 -529.648 854.735C-630.955 720.02 -668.928 580.953 -617.013 470.186C-565.098 359.419 -433.923 299.63 -265.573 291.3C-97.0225 282.96 109.919 326.066 315.431 422.386C520.942 518.707 686.47 650.174 787.897 785.049C889.204 919.764 927.177 1058.83 875.262 1169.6C823.347 1280.36 692.172 1340.15 523.822 1348.48C355.271 1356.82 148.329 1313.72 -57.1819 1217.4Z" fill="#F4F4F4" stroke="#B9966E" stroke-width="8"/>
</g>
</g>
<defs>
<clipPath id="clip0">
<rect width="1440" height="1024" fill="white"/>
</clipPath>
</defs>
</svg>
