<svg width="300" height="400" viewBox="0 0 300 400" fill="none" xmlns="http://www.w3.org/2000/svg">
<rect width="300" height="400" fill="#E12D2D"/>
<g filter="url(#filter0_d)">
<rect x="83" y="166" width="133" height="48" rx="10" fill="#E12D2D"/>
<rect x="83.5" y="166.5" width="132" height="47" rx="9.5" stroke="#D8A47F"/>
</g>
<g filter="url(#filter1_d)">
<path d="M107.504 200.372C110.552 197.924 112.94 195.92 114.668 194.36C116.396 192.776 117.848 191.132 119.024 189.428C120.224 187.7 120.824 186.008 120.824 184.352C120.824 182.792 120.44 181.568 119.672 180.68C118.928 179.768 117.716 179.312 116.036 179.312C114.404 179.312 113.132 179.828 112.22 180.86C111.332 181.868 110.852 183.224 110.78 184.928H107.612C107.708 182.24 108.524 180.164 110.06 178.7C111.596 177.236 113.576 176.504 116 176.504C118.472 176.504 120.428 177.188 121.868 178.556C123.332 179.924 124.064 181.808 124.064 184.208C124.064 186.2 123.464 188.144 122.264 190.04C121.088 191.912 119.744 193.568 118.232 195.008C116.72 196.424 114.788 198.08 112.436 199.976H124.82V202.712H107.504V200.372ZM128.607 189.716C128.607 185.588 129.279 182.372 130.623 180.068C131.967 177.74 134.319 176.576 137.679 176.576C141.015 176.576 143.355 177.74 144.699 180.068C146.043 182.372 146.715 185.588 146.715 189.716C146.715 193.916 146.043 197.18 144.699 199.508C143.355 201.836 141.015 203 137.679 203C134.319 203 131.967 201.836 130.623 199.508C129.279 197.18 128.607 193.916 128.607 189.716ZM143.475 189.716C143.475 187.628 143.331 185.864 143.043 184.424C142.779 182.96 142.215 181.784 141.351 180.896C140.511 180.008 139.287 179.564 137.679 179.564C136.047 179.564 134.799 180.008 133.935 180.896C133.095 181.784 132.531 182.96 132.243 184.424C131.979 185.864 131.847 187.628 131.847 189.716C131.847 191.876 131.979 193.688 132.243 195.152C132.531 196.616 133.095 197.792 133.935 198.68C134.799 199.568 136.047 200.012 137.679 200.012C139.287 200.012 140.511 199.568 141.351 198.68C142.215 197.792 142.779 196.616 143.043 195.152C143.331 193.688 143.475 191.876 143.475 189.716ZM150.42 197.204V194.72L163.056 177.224H166.98V194.36H170.58V197.204H166.98V203H163.74V197.204H150.42ZM163.884 180.644L154.2 194.36H163.884V180.644ZM178.605 189.464C177.261 188.936 176.229 188.168 175.509 187.16C174.789 186.152 174.429 184.928 174.429 183.488C174.429 182.192 174.753 181.028 175.401 179.996C176.049 178.94 177.009 178.112 178.281 177.512C179.577 176.888 181.137 176.576 182.961 176.576C184.785 176.576 186.333 176.888 187.605 177.512C188.901 178.112 189.873 178.94 190.521 179.996C191.193 181.028 191.529 182.192 191.529 183.488C191.529 184.88 191.157 186.104 190.413 187.16C189.669 188.192 188.649 188.96 187.353 189.464C188.841 189.92 190.017 190.724 190.881 191.876C191.769 193.004 192.213 194.372 192.213 195.98C192.213 197.54 191.829 198.908 191.061 200.084C190.293 201.236 189.201 202.136 187.785 202.784C186.393 203.408 184.785 203.72 182.961 203.72C181.137 203.72 179.529 203.408 178.137 202.784C176.769 202.136 175.701 201.236 174.933 200.084C174.165 198.908 173.781 197.54 173.781 195.98C173.781 194.372 174.213 192.992 175.077 191.84C175.941 190.688 177.117 189.896 178.605 189.464ZM188.361 183.884C188.361 182.42 187.881 181.292 186.921 180.5C185.961 179.708 184.641 179.312 182.961 179.312C181.305 179.312 179.997 179.708 179.037 180.5C178.077 181.292 177.597 182.432 177.597 183.92C177.597 185.264 178.089 186.344 179.073 187.16C180.081 187.976 181.377 188.384 182.961 188.384C184.569 188.384 185.865 187.976 186.849 187.16C187.857 186.32 188.361 185.228 188.361 183.884ZM182.961 190.904C181.185 190.904 179.733 191.324 178.605 192.164C177.477 192.98 176.913 194.216 176.913 195.872C176.913 197.408 177.453 198.644 178.533 199.58C179.637 200.516 181.113 200.984 182.961 200.984C184.809 200.984 186.273 200.516 187.353 199.58C188.433 198.644 188.973 197.408 188.973 195.872C188.973 194.264 188.421 193.04 187.317 192.2C186.213 191.336 184.761 190.904 182.961 190.904Z" fill="#D8A47F"/>
</g>
<g clip-path="url(#clip0)">
<path d="M78.3729 74.4793C78.2395 73.5911 78.0561 72.9322 77.7955 72.4076C77.479 71.7512 77.0876 71.2723 76.6005 70.9455C76.0963 70.5793 75.5011 70.386 74.8763 70.386H52.0771L57.5217 64.8185C61.4229 60.9518 64.6045 57.5025 66.9777 54.5669C69.372 51.6052 71.2609 48.8538 72.5939 46.3857C73.9644 43.83 74.8472 41.5048 75.2944 39.2689C75.7159 37.0888 75.9296 34.872 75.9296 32.6804C75.9296 30.0672 75.4753 27.5874 74.5792 25.3105C73.6658 22.9888 72.2683 20.9629 70.4253 19.2892C68.5986 17.6304 66.2788 16.3153 63.5276 15.3796C60.8182 14.4642 57.6323 14 54.0584 14C51.8276 14 49.6255 14.2141 47.5046 14.6385C45.4583 15.0619 43.5383 15.5891 41.7983 16.2055C40.0378 16.8291 38.5883 17.465 37.3729 18.1464C36.1491 18.8241 35.2931 19.3938 34.7559 19.8878C34.7419 19.9008 34.7282 19.9138 34.7146 19.9273C34.2184 20.4237 33.8645 20.845 33.6329 21.2155C33.6264 21.2259 33.6201 21.2363 33.6138 21.2469C33.3652 21.6694 33.18 22.1391 33.0632 22.6438C32.9317 23.1514 32.8413 23.6642 32.7865 24.2144C32.7337 24.7587 32.7102 25.4123 32.7102 26.3338C32.7102 27.5993 32.7529 28.6058 32.8398 29.4075C32.9227 30.1868 33.042 30.8811 33.2045 31.5301C33.2092 31.5489 33.2143 31.5677 33.2198 31.5863C33.4441 32.3438 33.7448 32.8681 34.1645 33.233C34.6404 33.6632 35.2306 33.8905 35.8732 33.8905C36.6159 33.8905 37.4412 33.561 38.47 32.8537C39.2041 32.3649 40.131 31.8168 41.2974 31.1821C42.4162 30.5811 43.7136 30.0383 45.1539 29.569C46.5788 29.1047 48.2313 28.8691 50.0656 28.8691C51.3254 28.8691 52.4099 29.0474 53.2782 29.3947C54.1729 29.7613 54.8762 30.2282 55.4285 30.8217C56.0121 31.4493 56.4487 32.1683 56.7305 32.9712C57.0351 33.8126 57.1894 34.7296 57.1894 35.6967C57.1894 36.8517 57.0533 38.062 56.7849 39.2938C56.5056 40.575 56.0013 41.9743 55.2859 43.4529C54.9571 44.1327 55.2415 44.9503 55.9211 45.2791C56.6002 45.6075 57.4183 45.3236 57.7472 44.6439C58.5562 42.9718 59.1312 41.3675 59.4564 39.8761C59.7666 38.4534 59.9237 37.0472 59.9237 35.6969C59.9237 34.4116 59.7144 33.1815 59.3058 32.0534C58.9031 30.9055 58.272 29.8648 57.4302 28.9596C56.6025 28.07 55.5835 27.3848 54.3043 26.8604C53.1006 26.3791 51.6746 26.135 50.0653 26.135C47.9429 26.135 46.0053 26.4158 44.3066 26.9696C42.7123 27.4891 41.2644 28.096 39.9966 28.7772C38.7472 29.4571 37.7493 30.0482 36.9454 30.5841C36.9396 30.5879 36.9339 30.5919 36.9281 30.5957C36.41 30.9527 36.1019 31.0837 35.9576 31.131C35.9304 31.0723 35.8925 30.979 35.8496 30.8372C35.7219 30.3207 35.6267 29.7581 35.5583 29.1155C35.4815 28.4097 35.4443 27.5 35.4443 26.3341C35.4443 25.5151 35.4644 24.9253 35.5073 24.4822C35.5484 24.0717 35.6159 23.6897 35.7139 23.3145C35.7175 23.3003 35.721 23.2863 35.7242 23.2721C35.776 23.0446 35.8576 22.8303 35.9606 22.6503C36.0329 22.5384 36.2108 22.3001 36.6258 21.8831C36.8479 21.6833 37.403 21.2554 38.7034 20.5352C39.7877 19.9273 41.0986 19.3542 42.7108 18.7832C44.3342 18.2082 46.1333 17.7148 48.0495 17.3182C49.9857 16.9308 52.0072 16.7344 54.0584 16.7344C57.3341 16.7344 60.2254 17.1501 62.6497 17.9692C65.0416 18.7827 67.0392 19.9079 68.5871 21.3134C70.1381 22.722 71.2657 24.3569 72.0348 26.3117C72.8049 28.2685 73.1952 30.4112 73.1952 32.6804C73.1952 34.6984 72.9984 36.7404 72.6114 38.7414C72.2196 40.7006 71.4255 42.7785 70.1862 45.0898C68.9349 47.4065 67.14 50.0168 64.8513 52.8479C62.5392 55.7078 59.4231 59.0844 55.5893 62.8839C55.5842 62.8888 55.5792 62.8939 55.5742 62.899L47.8503 70.7972C47.4657 71.1907 47.3542 71.7762 47.5676 72.2833C47.7811 72.7906 48.2776 73.1203 48.8279 73.1203H74.8763C74.9292 73.1203 74.9552 73.1289 74.9973 73.1607C75.0226 73.1795 75.0485 73.1976 75.0748 73.2147C75.0859 73.2219 75.1879 73.2941 75.335 73.6004C75.3382 73.6069 75.3414 73.6135 75.3446 73.6199C75.4719 73.8743 75.581 74.3002 75.6686 74.8854C75.7627 75.512 75.8104 76.2766 75.8104 77.1582C75.8104 78.1569 75.7739 78.934 75.699 79.5342C75.6344 80.0502 75.5309 80.5205 75.3913 80.9324C75.3153 81.1144 75.2441 81.2089 75.2118 81.2416C75.1887 81.2535 75.1514 81.2658 75.0854 81.2658H37.059C36.4277 81.2658 35.8915 81.21 35.4654 81.1001C35.187 81.0283 34.9744 80.9091 34.8302 80.7421C34.6426 80.5262 34.4933 80.1589 34.3869 79.6507C34.2558 79.024 34.1894 78.1385 34.1894 77.0189C34.1894 75.956 34.2383 75.0416 34.3347 74.3013C34.4278 73.5871 34.5756 73.0095 34.7864 72.5352C35.0276 71.9924 35.3349 71.4551 35.6957 70.9439C36.1107 70.3626 36.6145 69.7705 37.2356 69.1338C37.2422 69.1271 37.2486 69.1202 37.255 69.1134L48.7052 56.879C49.2882 56.2693 49.8452 55.6719 50.3609 55.1029C50.868 54.5434 50.8254 53.6788 50.2661 53.1717C49.707 52.6647 48.8422 52.7069 48.335 53.2664C47.834 53.8191 47.2918 54.4005 46.7237 54.9947C46.7205 54.9981 46.7171 55.0018 46.7138 55.0054L35.268 67.235C34.553 67.9688 33.9652 68.6623 33.4661 69.3611C32.9979 70.0245 32.6014 70.7189 32.2878 71.4247C31.9684 72.1432 31.751 72.9686 31.6234 73.948C31.5101 74.8171 31.4551 75.8216 31.4551 77.019C31.4551 78.3448 31.5387 79.3889 31.7107 80.2111C31.917 81.1956 32.2623 81.9563 32.7639 82.533C33.2684 83.1172 33.9664 83.5373 34.7823 83.7479C35.4316 83.9155 36.1978 84.0004 37.0591 84.0004H75.0856C75.7029 84.0004 76.2904 83.8208 76.7845 83.4807C76.7959 83.4729 76.8069 83.465 76.818 83.457C77.2958 83.1065 77.674 82.5896 77.9417 81.9205C77.9496 81.9005 77.957 81.8805 77.9641 81.8604C78.1718 81.2608 78.3226 80.5926 78.4124 79.8738C78.5016 79.16 78.545 78.2719 78.545 77.1587C78.5449 76.1411 78.4871 75.2399 78.3729 74.4793V74.4793Z" fill="#D8A47F"/>
<path d="M54.6061 49.4185C54.6061 48.6635 53.9939 48.0513 53.239 48.0513H53.2379C52.4829 48.0513 51.8712 48.6635 51.8712 49.4185C51.8712 50.1734 52.4839 50.7857 53.239 50.7857C53.994 50.7857 54.6061 50.1734 54.6061 49.4185V49.4185Z" fill="#D8A47F"/>
</g>
<g clip-path="url(#clip1)">
<path d="M288.373 362.479C288.239 361.591 288.056 360.932 287.795 360.408C287.479 359.751 287.088 359.272 286.6 358.946C286.096 358.579 285.501 358.386 284.876 358.386H262.077L267.522 352.818C271.423 348.952 274.604 345.503 276.978 342.567C279.372 339.605 281.261 336.854 282.594 334.386C283.964 331.83 284.847 329.505 285.294 327.269C285.716 325.089 285.93 322.872 285.93 320.68C285.93 318.067 285.475 315.587 284.579 313.31C283.666 310.989 282.268 308.963 280.425 307.289C278.599 305.63 276.279 304.315 273.528 303.38C270.818 302.464 267.632 302 264.058 302C261.828 302 259.625 302.214 257.504 302.638C255.458 303.062 253.538 303.589 251.798 304.206C250.038 304.829 248.588 305.465 247.373 306.146C246.149 306.824 245.293 307.394 244.756 307.888C244.742 307.901 244.728 307.914 244.715 307.927C244.218 308.424 243.864 308.845 243.633 309.215C243.626 309.226 243.62 309.236 243.614 309.247C243.365 309.669 243.18 310.139 243.063 310.644C242.932 311.151 242.841 311.664 242.786 312.214C242.734 312.759 242.71 313.412 242.71 314.334C242.71 315.599 242.753 316.606 242.84 317.408C242.923 318.187 243.042 318.881 243.204 319.53C243.209 319.549 243.214 319.568 243.22 319.586C243.444 320.344 243.745 320.868 244.164 321.233C244.64 321.663 245.231 321.891 245.873 321.891C246.616 321.891 247.441 321.561 248.47 320.854C249.204 320.365 250.131 319.817 251.297 319.182C252.416 318.581 253.714 318.038 255.154 317.569C256.579 317.105 258.231 316.869 260.066 316.869C261.325 316.869 262.41 317.047 263.278 317.395C264.173 317.761 264.876 318.228 265.428 318.822C266.012 319.449 266.449 320.168 266.73 320.971C267.035 321.813 267.189 322.73 267.189 323.697C267.189 324.852 267.053 326.062 266.785 327.294C266.506 328.575 266.001 329.974 265.286 331.453C264.957 332.133 265.241 332.95 265.921 333.279C266.6 333.607 267.418 333.324 267.747 332.644C268.556 330.972 269.131 329.368 269.456 327.876C269.767 326.453 269.924 325.047 269.924 323.697C269.924 322.412 269.714 321.182 269.306 320.053C268.903 318.906 268.272 317.865 267.43 316.96C266.602 316.07 265.583 315.385 264.304 314.86C263.101 314.379 261.675 314.135 260.065 314.135C257.943 314.135 256.005 314.416 254.307 314.97C252.712 315.489 251.264 316.096 249.997 316.777C248.747 317.457 247.749 318.048 246.945 318.584C246.94 318.588 246.934 318.592 246.928 318.596C246.41 318.953 246.102 319.084 245.957 319.131C245.93 319.072 245.892 318.979 245.849 318.837C245.722 318.321 245.627 317.758 245.558 317.115C245.481 316.41 245.444 315.5 245.444 314.334C245.444 313.515 245.464 312.925 245.507 312.482C245.548 312.072 245.616 311.69 245.714 311.315C245.717 311.3 245.721 311.286 245.724 311.272C245.776 311.045 245.858 310.83 245.961 310.65C246.033 310.538 246.211 310.3 246.626 309.883C246.848 309.683 247.403 309.255 248.703 308.535C249.788 307.927 251.099 307.354 252.711 306.783C254.334 306.208 256.133 305.715 258.049 305.318C259.986 304.931 262.007 304.734 264.058 304.734C267.334 304.734 270.225 305.15 272.65 305.969C275.042 306.783 277.039 307.908 278.587 309.313C280.138 310.722 281.266 312.357 282.035 314.312C282.805 316.269 283.195 318.411 283.195 320.68C283.195 322.698 282.998 324.74 282.611 326.741C282.22 328.701 281.425 330.778 280.186 333.09C278.935 335.407 277.14 338.017 274.851 340.848C272.539 343.708 269.423 347.084 265.589 350.884C265.584 350.889 265.579 350.894 265.574 350.899L257.85 358.797C257.466 359.191 257.354 359.776 257.568 360.283C257.781 360.791 258.277 361.12 258.828 361.12H284.876C284.929 361.12 284.955 361.129 284.997 361.161C285.023 361.18 285.048 361.198 285.075 361.215C285.086 361.222 285.188 361.294 285.335 361.6C285.338 361.607 285.341 361.613 285.345 361.62C285.472 361.874 285.581 362.3 285.669 362.885C285.763 363.512 285.81 364.277 285.81 365.158C285.81 366.157 285.774 366.934 285.699 367.534C285.634 368.05 285.531 368.521 285.391 368.932C285.315 369.114 285.244 369.209 285.212 369.242C285.189 369.253 285.151 369.266 285.085 369.266H247.059C246.428 369.266 245.891 369.21 245.465 369.1C245.187 369.028 244.974 368.909 244.83 368.742C244.643 368.526 244.493 368.159 244.387 367.651C244.256 367.024 244.189 366.138 244.189 365.019C244.189 363.956 244.238 363.042 244.335 362.301C244.428 361.587 244.576 361.009 244.786 360.535C245.028 359.992 245.335 359.455 245.696 358.944C246.111 358.363 246.614 357.77 247.236 357.134C247.242 357.127 247.249 357.12 247.255 357.113L258.705 344.879C259.288 344.269 259.845 343.672 260.361 343.103C260.868 342.543 260.825 341.679 260.266 341.172C259.707 340.665 258.842 340.707 258.335 341.266C257.834 341.819 257.292 342.401 256.724 342.995C256.72 342.998 256.717 343.002 256.714 343.005L245.268 355.235C244.553 355.969 243.965 356.662 243.466 357.361C242.998 358.024 242.601 358.719 242.288 359.425C241.968 360.143 241.751 360.969 241.623 361.948C241.51 362.817 241.455 363.822 241.455 365.019C241.455 366.345 241.539 367.389 241.711 368.211C241.917 369.196 242.262 369.956 242.764 370.533C243.268 371.117 243.966 371.537 244.782 371.748C245.432 371.916 246.198 372 247.059 372H285.086C285.703 372 286.29 371.821 286.784 371.481C286.796 371.473 286.807 371.465 286.818 371.457C287.296 371.107 287.674 370.59 287.942 369.921C287.95 369.901 287.957 369.88 287.964 369.86C288.172 369.261 288.323 368.593 288.412 367.874C288.501 367.16 288.545 366.272 288.545 365.159C288.545 364.141 288.487 363.24 288.373 362.479V362.479Z" fill="#D8A47F"/>
<path d="M264.606 337.418C264.606 336.664 263.994 336.051 263.239 336.051H263.238C262.483 336.051 261.871 336.664 261.871 337.418C261.871 338.173 262.484 338.786 263.239 338.786C263.994 338.786 264.606 338.173 264.606 337.418V337.418Z" fill="#D8A47F"/>
</g>
<path d="M148.583 104.502C147.888 100.205 146.628 96.5128 144.844 93.5324C143.028 90.4693 140.503 88.0811 137.339 86.4341C134.236 84.8189 130.297 84 125.634 84C121.073 84 117.129 84.8477 113.918 86.5169C110.705 88.1688 108.043 90.6067 106.003 93.7672C104.034 96.8465 102.586 100.607 101.701 104.944C100.83 109.214 100.388 114.03 100.388 119.257C100.388 124.524 100.74 129.318 101.435 133.503C102.146 137.785 103.416 141.475 105.207 144.467C107.025 147.534 109.538 149.922 112.675 151.564C115.762 153.18 119.696 154 124.366 154C128.961 154 132.922 153.152 136.133 151.483C139.346 149.831 142.008 147.393 144.048 144.232C146.025 141.142 147.467 137.385 148.334 133.068C149.182 128.845 149.612 124.026 149.612 118.743C149.612 113.513 149.266 108.721 148.583 104.502V104.502ZM145.653 132.53C144.853 136.514 143.538 139.955 141.748 142.755C139.974 145.503 137.665 147.621 134.878 149.054C132.054 150.521 128.518 151.265 124.366 151.265C120.142 151.265 116.635 150.551 113.943 149.142C111.263 147.738 109.115 145.697 107.557 143.068C105.939 140.366 104.787 136.998 104.133 133.056C103.462 129.018 103.123 124.375 103.123 119.257C103.123 114.213 103.546 109.582 104.381 105.491C105.198 101.485 106.519 98.0358 108.304 95.2454C110.077 92.4973 112.387 90.3789 115.174 88.9461C117.997 87.4784 121.516 86.7344 125.634 86.7344C129.853 86.7344 133.367 87.4494 136.077 88.8597C138.781 90.2675 140.939 92.3088 142.495 94.932C144.104 97.619 145.244 100.986 145.884 104.939C146.543 109.014 146.877 113.658 146.877 118.743C146.877 123.845 146.465 128.484 145.653 132.53V132.53Z" fill="#D8A47F"/>
<path d="M135.29 104.869C135.289 104.864 135.288 104.859 135.287 104.854C134.913 103.056 134.441 101.486 133.885 100.188C133.288 98.7956 132.543 97.6752 131.669 96.8574C130.787 95.9991 129.765 95.3757 128.631 95.0045C128.623 95.002 128.616 94.9998 128.609 94.9975C127.521 94.6615 126.33 94.491 125.068 94.491C122.815 94.491 120.89 95.057 119.337 96.1801C117.83 97.291 116.671 98.8918 115.792 101.08C114.987 103.112 114.426 105.628 114.127 108.55C113.997 109.745 113.893 111.039 113.817 112.396C113.775 113.15 114.352 113.795 115.105 113.838C115.86 113.879 116.505 113.303 116.547 112.549C116.62 111.239 116.721 109.993 116.846 108.837C117.12 106.157 117.621 103.886 118.332 102.094C119.013 100.396 119.873 99.1822 120.95 98.3886C122.017 97.6166 123.402 97.2254 125.068 97.2254C126.051 97.2254 126.967 97.3536 127.791 97.6067C128.534 97.8518 129.182 98.2503 129.77 98.8247C129.778 98.8322 129.785 98.8395 129.793 98.8467C130.392 99.4047 130.923 100.218 131.371 101.265C131.855 102.394 132.271 103.786 132.608 105.403C132.939 107.094 133.191 109.107 133.356 111.385C133.524 113.69 133.609 116.396 133.609 119.428C133.609 122.075 133.554 124.326 133.44 126.31C133.324 128.34 133.107 130.187 132.792 131.813C132.5 133.388 132.111 134.781 131.635 135.954C131.633 135.961 131.63 135.968 131.627 135.975C131.206 137.062 130.662 137.984 130.009 138.715C129.347 139.419 128.639 139.918 127.845 140.241C127.838 140.243 127.832 140.246 127.826 140.249C127.003 140.598 126.012 140.775 124.88 140.775C123.355 140.775 122.103 140.481 121.06 139.881C120.07 139.303 119.232 138.251 118.572 136.759C117.839 135.084 117.285 132.778 116.929 129.912C116.747 128.388 116.61 126.638 116.52 124.71C116.485 123.956 115.845 123.373 115.091 123.408C114.336 123.443 113.753 124.083 113.788 124.837C113.881 126.83 114.024 128.647 114.215 130.243C114.61 133.422 115.216 135.912 116.07 137.861C116.97 139.895 118.185 141.369 119.69 142.247C121.145 143.085 122.891 143.509 124.88 143.509C126.376 143.509 127.723 143.26 128.884 142.77C130.036 142.3 131.089 141.561 132.014 140.574C132.021 140.567 132.028 140.56 132.034 140.552C132.912 139.575 133.632 138.37 134.174 136.971C134.716 135.63 135.156 134.063 135.479 132.323C135.815 130.588 136.048 128.617 136.17 126.467C136.287 124.43 136.344 122.128 136.344 119.428C136.344 116.33 136.256 113.557 136.083 111.187C135.907 108.762 135.648 106.696 135.29 104.869V104.869Z" fill="#D8A47F"/>
<path d="M115.023 119.99C115.778 119.99 116.39 119.378 116.39 118.623C116.39 117.868 115.778 117.256 115.023 117.256H115.022C114.267 117.256 113.656 117.868 113.656 118.623C113.656 119.378 114.268 119.99 115.023 119.99Z" fill="#D8A47F"/>
<path d="M213.583 246.502C212.888 242.205 211.629 238.513 209.844 235.532C208.028 232.469 205.503 230.081 202.339 228.434C199.236 226.819 195.297 226 190.634 226C186.073 226 182.129 226.848 178.918 228.517C175.705 230.169 173.043 232.607 171.003 235.767C169.034 238.847 167.586 242.607 166.701 246.944C165.83 251.214 165.388 256.03 165.388 261.257C165.388 266.524 165.74 271.318 166.435 275.503C167.146 279.785 168.416 283.475 170.208 286.467C172.025 289.534 174.538 291.922 177.675 293.564C180.762 295.18 184.696 296 189.366 296C193.961 296 197.922 295.152 201.133 293.483C204.346 291.831 207.008 289.393 209.048 286.232C211.025 283.142 212.467 279.385 213.334 275.068C214.182 270.845 214.612 266.026 214.612 260.743C214.612 255.513 214.266 250.721 213.583 246.502V246.502ZM210.653 274.53C209.853 278.514 208.538 281.955 206.748 284.755C204.974 287.503 202.665 289.621 199.878 291.054C197.054 292.521 193.518 293.265 189.366 293.265C185.142 293.265 181.635 292.551 178.943 291.142C176.263 289.738 174.115 287.697 172.557 285.068C170.939 282.366 169.787 278.998 169.133 275.056C168.462 271.018 168.123 266.375 168.123 261.257C168.123 256.213 168.546 251.582 169.381 247.491C170.198 243.485 171.519 240.036 173.304 237.245C175.077 234.497 177.387 232.379 180.174 230.946C182.997 229.478 186.516 228.734 190.634 228.734C194.854 228.734 198.367 229.449 201.077 230.86C203.781 232.267 205.94 234.309 207.495 236.932C209.104 239.619 210.244 242.986 210.884 246.939C211.543 251.014 211.877 255.658 211.877 260.743C211.877 265.845 211.465 270.484 210.653 274.53V274.53Z" fill="#D8A47F"/>
<path d="M200.29 246.869C200.289 246.864 200.288 246.859 200.287 246.854C199.913 245.056 199.441 243.486 198.885 242.188C198.288 240.796 197.543 239.675 196.669 238.857C195.787 237.999 194.765 237.376 193.631 237.004C193.623 237.002 193.616 237 193.609 236.998C192.521 236.661 191.33 236.491 190.068 236.491C187.815 236.491 185.89 237.057 184.337 238.18C182.83 239.291 181.671 240.892 180.792 243.08C179.987 245.112 179.426 247.628 179.127 250.55C178.997 251.745 178.893 253.039 178.817 254.396C178.775 255.15 179.352 255.795 180.105 255.838C180.86 255.879 181.505 255.303 181.547 254.549C181.62 253.239 181.721 251.993 181.846 250.837C182.12 248.157 182.621 245.886 183.332 244.093C184.013 242.396 184.873 241.182 185.95 240.389C187.017 239.617 188.402 239.225 190.068 239.225C191.051 239.225 191.967 239.354 192.791 239.607C193.534 239.852 194.182 240.25 194.77 240.825C194.778 240.832 194.785 240.839 194.793 240.847C195.392 241.405 195.923 242.218 196.371 243.265C196.855 244.394 197.271 245.786 197.608 247.403C197.939 249.094 198.191 251.107 198.356 253.385C198.524 255.69 198.609 258.396 198.609 261.428C198.609 264.075 198.554 266.326 198.44 268.31C198.324 270.34 198.107 272.187 197.792 273.813C197.5 275.388 197.111 276.781 196.635 277.954C196.633 277.961 196.63 277.968 196.627 277.975C196.206 279.062 195.662 279.984 195.009 280.715C194.347 281.419 193.639 281.918 192.845 282.241C192.838 282.243 192.832 282.246 192.826 282.249C192.003 282.598 191.012 282.775 189.88 282.775C188.355 282.775 187.103 282.481 186.06 281.881C185.07 281.303 184.232 280.251 183.572 278.759C182.839 277.084 182.285 274.778 181.929 271.912C181.747 270.388 181.61 268.638 181.52 266.71C181.485 265.956 180.845 265.373 180.091 265.408C179.336 265.443 178.753 266.083 178.788 266.837C178.881 268.83 179.024 270.647 179.215 272.243C179.61 275.422 180.216 277.912 181.07 279.861C181.97 281.895 183.185 283.369 184.69 284.247C186.145 285.085 187.891 285.509 189.88 285.509C191.376 285.509 192.723 285.26 193.884 284.77C195.036 284.3 196.089 283.561 197.014 282.574C197.021 282.567 197.028 282.56 197.034 282.552C197.912 281.575 198.632 280.37 199.174 278.971C199.716 277.63 200.156 276.063 200.479 274.323C200.815 272.588 201.048 270.617 201.17 268.467C201.287 266.43 201.344 264.128 201.344 261.428C201.344 258.33 201.256 255.557 201.083 253.187C200.907 250.762 200.648 248.696 200.29 246.869V246.869Z" fill="#D8A47F"/>
<path d="M180.023 261.99C180.778 261.99 181.39 261.378 181.39 260.623C181.39 259.868 180.778 259.256 180.023 259.256H180.022C179.267 259.256 178.656 259.868 178.656 260.623C178.656 261.378 179.268 261.99 180.023 261.99Z" fill="#D8A47F"/>
<g clip-path="url(#clip2)">
<path d="M198.743 25.703H198.637C198.147 25.703 197.695 25.9655 197.451 26.391L191.757 36.3386C191.382 36.9939 191.609 37.8293 192.264 38.2043C192.919 38.5797 193.755 38.3523 194.13 37.6969L197.376 32.0264V56.2782H183.494L188.016 48.3775C188.391 47.7222 188.164 46.8869 187.509 46.5119C186.854 46.1366 186.018 46.3639 185.643 47.0192L179.949 56.9663C179.707 57.3895 179.709 57.9094 179.953 58.3312C180.198 58.753 180.648 59.0126 181.136 59.0126H198.743C199.498 59.0126 200.11 58.4004 200.11 57.6454V27.0702C200.11 26.3151 199.498 25.703 198.743 25.703V25.703Z" fill="#D8A47F"/>
<path d="M220.365 58.3311C219.583 56.6348 218.496 56.2782 217.721 56.2782H213.184V17.5812C213.184 17.0379 213.011 16.2449 212.188 15.5515C212.168 15.5348 212.148 15.5188 212.127 15.5032C211.595 15.1044 210.881 14.7956 210.004 14.5853C209.181 14.3713 208.127 14.2211 206.783 14.1263C205.59 14.0414 204.087 14 202.187 14C200.551 14 199.139 14.0364 197.99 14.1081C196.731 14.1868 195.745 14.305 194.977 14.4698C194.062 14.666 193.418 14.8807 192.89 15.1668C192.883 15.1706 192.876 15.1747 192.869 15.1787C192.246 15.5308 191.78 15.9641 191.484 16.4665C191.481 16.4728 191.477 16.4791 191.474 16.4855L170.791 52.9648C170.787 52.9729 170.782 52.9808 170.778 52.9889C170.424 53.6439 170.111 54.3148 169.848 54.9831C169.841 54.9983 169.836 55.0136 169.83 55.029C169.579 55.7408 169.395 56.4159 169.267 57.0927C169.134 57.791 169.039 58.5856 168.982 59.4542C168.931 60.2301 168.909 61.1409 168.909 62.4076C168.909 63.8965 168.97 64.9893 169.1 65.8465C169.246 66.8053 169.482 67.5657 169.821 68.1717C169.832 68.1907 169.843 68.2094 169.855 68.2279C170.297 68.9365 170.87 69.4076 171.556 69.6287C172.044 69.7903 172.618 69.8722 173.263 69.8722H197.376V80.577C197.376 81.2142 197.559 81.7876 197.921 82.2816C198.275 82.7641 198.825 83.1333 199.601 83.4109C199.615 83.4158 199.629 83.4205 199.643 83.4251C200.262 83.6239 201.056 83.7777 201.94 83.8698C202.794 83.9587 203.833 84.0001 205.21 84.0001C206.652 84.0001 207.715 83.9586 208.552 83.8696C209.389 83.7806 210.152 83.6336 210.821 83.4332C210.839 83.4277 210.857 83.4221 210.874 83.4159C211.669 83.142 212.228 82.7787 212.585 82.3065C212.977 81.807 213.184 81.2097 213.184 80.5772V69.8724H217.721C218.418 69.8724 219.699 69.5816 220.451 67.6356C220.882 66.5629 221.091 65.0884 221.091 63.1282C221.091 60.8974 220.86 59.3726 220.365 58.3311V58.3311ZM217.911 66.6225C217.909 66.6295 217.906 66.6366 217.903 66.6436C217.789 66.9412 217.689 67.0806 217.639 67.1378H211.816C211.061 67.1378 210.449 67.75 210.449 68.505V80.577C210.449 80.589 210.448 80.5957 210.448 80.5961C210.448 80.5982 210.443 80.6062 210.433 80.6192C210.43 80.6228 210.427 80.6266 210.424 80.6302C210.391 80.6544 210.278 80.7268 210.008 80.822C209.506 80.97 208.92 81.0805 208.263 81.1502C207.534 81.2279 206.535 81.2656 205.209 81.2656C203.947 81.2656 202.97 81.2279 202.223 81.15C201.545 81.0793 200.935 80.9653 200.5 80.8283C200.263 80.7417 200.155 80.6745 200.117 80.647C200.113 80.6347 200.11 80.6144 200.11 80.5768V68.5048C200.11 67.7499 199.498 67.1377 198.743 67.1377H173.263C172.822 67.1377 172.558 67.0802 172.413 67.0321C172.407 67.0301 172.401 67.0281 172.395 67.0262C172.368 67.0176 172.292 66.9603 172.191 66.8065C172.074 66.5859 171.916 66.1732 171.804 65.435C171.696 64.727 171.643 63.7368 171.643 62.4075C171.643 61.2188 171.665 60.3369 171.711 59.6321C171.76 58.8738 171.842 58.1905 171.953 57.601C172.054 57.0693 172.2 56.5329 172.401 55.9623C172.62 55.4072 172.882 54.8486 173.177 54.301L193.844 17.849C193.859 17.8251 193.94 17.716 194.203 17.5654C194.485 17.4152 194.926 17.2773 195.55 17.1434C196.185 17.0074 197.038 16.9072 198.16 16.8372C199.253 16.769 200.608 16.7344 202.187 16.7344C204.021 16.7344 205.461 16.7735 206.589 16.854C207.755 16.9362 208.676 17.0641 209.326 17.2345C209.336 17.2372 209.346 17.2396 209.356 17.242C209.99 17.3929 210.314 17.5725 210.449 17.6645V57.6455C210.449 58.4005 211.061 59.0127 211.816 59.0127H217.603C217.657 59.073 217.759 59.2084 217.884 59.4805C217.887 59.4876 217.89 59.4947 217.893 59.5015C218.105 59.9426 218.357 60.9297 218.357 63.128C218.357 64.7149 218.207 65.8906 217.911 66.6225V66.6225Z" fill="#D8A47F"/>
<path d="M189.887 43.725C190.642 43.725 191.254 43.1127 191.254 42.3578C191.254 41.6028 190.642 40.9906 189.887 40.9906H189.886C189.131 40.9906 188.519 41.6028 188.519 42.3578C188.519 43.1127 189.132 43.725 189.887 43.725Z" fill="#D8A47F"/>
</g>
<g clip-path="url(#clip3)">
<path d="M128.743 313.703H128.637C128.147 313.703 127.694 313.965 127.451 314.391L121.757 324.339C121.382 324.994 121.609 325.829 122.264 326.204C122.919 326.58 123.755 326.352 124.13 325.697L127.376 320.026V344.278H113.494L118.016 336.378C118.391 335.722 118.164 334.887 117.509 334.512C116.854 334.137 116.018 334.364 115.643 335.019L109.949 344.966C109.707 345.389 109.709 345.909 109.953 346.331C110.198 346.753 110.648 347.013 111.136 347.013H128.743C129.498 347.013 130.11 346.4 130.11 345.645V315.07C130.11 314.315 129.498 313.703 128.743 313.703V313.703Z" fill="#D8A47F"/>
<path d="M150.365 346.331C149.583 344.635 148.496 344.278 147.721 344.278H143.184V305.581C143.184 305.038 143.011 304.245 142.188 303.551C142.168 303.535 142.148 303.519 142.127 303.503C141.595 303.104 140.881 302.796 140.004 302.585C139.181 302.371 138.127 302.221 136.783 302.126C135.59 302.041 134.086 302 132.187 302C130.551 302 129.139 302.036 127.99 302.108C126.731 302.187 125.745 302.305 124.977 302.47C124.062 302.666 123.418 302.881 122.89 303.167C122.883 303.171 122.876 303.175 122.869 303.179C122.246 303.531 121.78 303.964 121.484 304.467C121.481 304.473 121.477 304.479 121.473 304.486L100.791 340.965C100.787 340.973 100.782 340.981 100.778 340.989C100.424 341.644 100.111 342.315 99.8474 342.983C99.8414 342.998 99.8358 343.014 99.8304 343.029C99.5791 343.741 99.3946 344.416 99.2665 345.093C99.1343 345.791 99.0386 346.586 98.982 347.454C98.9314 348.23 98.9089 349.141 98.9089 350.408C98.9089 351.896 98.9696 352.989 99.1001 353.846C99.246 354.805 99.482 355.566 99.8213 356.172C99.832 356.191 99.8432 356.209 99.8547 356.228C100.297 356.936 100.87 357.408 101.556 357.629C102.044 357.79 102.618 357.872 103.263 357.872H127.376V368.577C127.376 369.214 127.559 369.788 127.921 370.282C128.275 370.764 128.824 371.133 129.601 371.411C129.615 371.416 129.628 371.42 129.643 371.425C130.261 371.624 131.056 371.778 131.94 371.87C132.794 371.959 133.833 372 135.209 372C136.652 372 137.714 371.959 138.552 371.87C139.389 371.781 140.152 371.634 140.821 371.433C140.839 371.428 140.857 371.422 140.874 371.416C141.668 371.142 142.228 370.779 142.585 370.306C142.977 369.807 143.184 369.21 143.184 368.577V357.872H147.721C148.418 357.872 149.699 357.582 150.451 355.636C150.882 354.563 151.091 353.088 151.091 351.128C151.091 348.897 150.86 347.373 150.365 346.331V346.331ZM147.911 354.622C147.908 354.629 147.906 354.637 147.903 354.644C147.789 354.941 147.689 355.081 147.639 355.138H141.816C141.061 355.138 140.449 355.75 140.449 356.505V368.577C140.449 368.589 140.448 368.596 140.448 368.596C140.447 368.598 140.443 368.606 140.433 368.619C140.43 368.623 140.427 368.627 140.424 368.63C140.391 368.654 140.278 368.727 140.008 368.822C139.506 368.97 138.919 369.081 138.263 369.15C137.534 369.228 136.535 369.266 135.209 369.266C133.947 369.266 132.97 369.228 132.223 369.15C131.545 369.079 130.935 368.965 130.5 368.828C130.263 368.742 130.155 368.674 130.117 368.647C130.113 368.635 130.11 368.614 130.11 368.577V356.505C130.11 355.75 129.498 355.138 128.743 355.138H103.263C102.822 355.138 102.558 355.08 102.413 355.032C102.407 355.03 102.401 355.028 102.395 355.026C102.368 355.018 102.292 354.96 102.191 354.807C102.074 354.586 101.916 354.173 101.803 353.435C101.696 352.727 101.643 351.737 101.643 350.407C101.643 349.219 101.665 348.337 101.711 347.632C101.76 346.874 101.842 346.191 101.953 345.601C102.054 345.069 102.2 344.533 102.401 343.962C102.62 343.407 102.882 342.849 103.177 342.301L123.844 305.849C123.859 305.825 123.939 305.716 124.203 305.565C124.485 305.415 124.925 305.277 125.55 305.143C126.185 305.007 127.038 304.907 128.16 304.837C129.253 304.769 130.608 304.734 132.187 304.734C134.021 304.734 135.46 304.773 136.589 304.854C137.755 304.936 138.676 305.064 139.326 305.234C139.336 305.237 139.346 305.24 139.356 305.242C139.99 305.393 140.314 305.572 140.449 305.664V345.646C140.449 346.401 141.061 347.013 141.816 347.013H147.602C147.657 347.073 147.759 347.208 147.884 347.48C147.887 347.488 147.89 347.495 147.893 347.502C148.105 347.943 148.357 348.93 148.357 351.128C148.357 352.715 148.207 353.891 147.911 354.622V354.622Z" fill="#D8A47F"/>
<path d="M119.887 331.725C120.642 331.725 121.254 331.113 121.254 330.358C121.254 329.603 120.642 328.991 119.887 328.991H119.886C119.131 328.991 118.519 329.603 118.519 330.358C118.519 331.113 119.131 331.725 119.887 331.725Z" fill="#D8A47F"/>
</g>
<g clip-path="url(#clip4)">
<path d="M260.868 111.312C261.962 112.036 263.311 112.833 265.114 113.822C265.319 113.934 265.545 113.99 265.771 113.99C266.012 113.99 266.253 113.927 266.468 113.8C269.097 112.244 271.063 110.631 272.473 108.873C273.984 107.009 274.75 104.88 274.75 102.544C274.75 101.253 274.557 100.042 274.178 98.9429C274.174 98.9335 274.171 98.9238 274.167 98.9144C273.737 97.7518 273.083 96.769 272.226 95.9928C271.389 95.236 270.33 94.644 269.077 94.2333C269.071 94.2311 269.064 94.229 269.058 94.227C267.867 93.856 266.479 93.6681 264.931 93.6681C261.792 93.6681 259.372 94.4442 257.739 95.9749C256.088 97.5234 255.25 99.6527 255.25 102.303C255.25 103.557 255.461 104.716 255.875 105.749C256.278 106.811 256.915 107.813 257.768 108.729C258.546 109.596 259.588 110.465 260.868 111.312V111.312ZM259.61 97.9699C260.719 96.9299 262.509 96.4026 264.931 96.4026C266.198 96.4026 267.31 96.5479 268.235 96.8347C269.129 97.1291 269.834 97.517 270.391 98.0206C270.924 98.5022 271.318 99.1007 271.598 99.8503C271.875 100.658 272.015 101.564 272.015 102.544C272.015 104.261 271.47 105.768 270.345 107.156C269.273 108.492 267.726 109.798 265.739 111.043C264.345 110.265 263.265 109.619 262.378 109.032C261.287 108.31 260.419 107.591 259.797 106.895C259.79 106.888 259.783 106.88 259.776 106.873C259.159 106.213 258.706 105.505 258.428 104.769C258.425 104.76 258.421 104.75 258.417 104.74C258.13 104.03 257.985 103.21 257.985 102.304C257.985 100.413 258.516 98.995 259.61 97.9699V97.9699Z" fill="#D8A47F"/>
<path d="M288.396 128.468C287.78 126.801 286.855 125.182 285.643 123.647C284.443 122.152 282.988 120.763 281.32 119.52C280.259 118.71 279.064 117.915 277.751 117.143C278.775 116.466 279.73 115.746 280.608 114.989C282.081 113.7 283.285 112.382 284.288 110.96C285.271 109.566 286.066 108.025 286.653 106.379C286.654 106.375 286.656 106.371 286.657 106.366C287.219 104.738 287.503 103.042 287.503 101.326C287.503 98.7842 287.072 96.4262 286.221 94.3178C285.357 92.1765 284.008 90.3048 282.207 88.75C280.417 87.2211 278.129 86.029 275.404 85.2059C272.698 84.3946 269.547 84 265.771 84C261.977 84 258.723 84.4288 255.823 85.3114C252.922 86.1995 250.452 87.5001 248.481 89.1763C246.491 90.8666 244.981 92.8936 243.999 95.1925C243.002 97.4813 242.497 100.053 242.497 102.835C242.497 104.757 242.773 106.588 243.317 108.277C243.856 109.95 244.671 111.512 245.736 112.912C246.777 114.301 248.043 115.586 249.489 116.725C250.333 117.4 251.246 118.049 252.218 118.664C250.887 119.451 249.657 120.265 248.542 121.098C246.801 122.413 245.349 123.812 244.231 125.249C243.074 126.713 242.17 128.37 241.54 130.186C240.946 131.948 240.645 133.842 240.645 135.817C240.645 138.72 241.159 141.331 242.172 143.578C243.208 145.878 244.768 147.831 246.812 149.387C248.83 150.91 251.342 152.078 254.278 152.857C257.135 153.616 260.512 154 264.314 154C268.272 154 271.827 153.568 274.881 152.715C278.023 151.839 280.685 150.537 282.786 148.853C284.936 147.148 286.593 145.007 287.713 142.487C288.802 140.013 289.355 137.181 289.355 134.068C289.355 132.074 289.032 130.19 288.396 128.468V128.468ZM285.213 141.381C284.276 143.489 282.887 145.282 281.081 146.715C279.264 148.172 276.931 149.305 274.146 150.082C271.331 150.867 268.023 151.266 264.314 151.266C260.749 151.266 257.608 150.912 254.98 150.215C252.387 149.526 250.193 148.514 248.463 147.208C246.791 145.935 245.512 144.335 244.664 142.454C243.812 140.563 243.38 138.33 243.38 135.816C243.38 134.14 243.632 132.539 244.127 131.071C244.66 129.535 245.396 128.185 246.383 126.936C247.36 125.68 248.641 124.45 250.185 123.284C251.749 122.115 253.575 120.976 255.611 119.9C256.057 119.664 256.337 119.202 256.339 118.698C256.341 118.193 256.066 117.728 255.622 117.488C253.987 116.606 252.499 115.631 251.19 114.583C249.903 113.57 248.835 112.487 247.918 111.264C247.023 110.088 246.37 108.836 245.92 107.439C245.463 106.021 245.231 104.472 245.231 102.835C245.231 100.431 245.66 98.2265 246.51 96.2756C247.328 94.3614 248.587 92.6741 250.252 91.2598C251.938 89.826 254.082 88.7042 256.622 87.9264C259.221 87.1354 262.299 86.7342 265.772 86.7342C269.229 86.7342 272.205 87.1013 274.616 87.8244C276.974 88.5367 278.931 89.5476 280.426 90.8247C281.89 92.0877 282.986 93.6074 283.686 95.3411C284.405 97.1228 284.769 99.1367 284.769 101.326C284.769 102.756 284.542 104.111 284.075 105.468C283.572 106.877 282.892 108.195 282.054 109.384C281.177 110.627 280.116 111.787 278.815 112.925C277.52 114.042 276.021 115.079 274.361 116.006C273.923 116.252 273.654 116.717 273.661 117.22C273.669 117.722 273.951 118.18 274.397 118.412C276.417 119.465 278.19 120.57 279.667 121.698C279.672 121.701 279.676 121.705 279.68 121.708C281.166 122.814 282.454 124.042 283.504 125.35C284.532 126.651 285.315 128.019 285.831 129.416C286.363 130.854 286.621 132.375 286.621 134.068C286.62 136.799 286.146 139.261 285.213 141.381V141.381Z" fill="#D8A47F"/>
<path d="M273.313 127.728C272.325 126.722 271.109 125.776 269.696 124.917C268.284 124.03 266.667 123.148 264.89 122.293C264.497 122.105 264.038 122.114 263.654 122.319C262.055 123.172 260.633 124.044 259.427 124.912C258.192 125.772 257.121 126.733 256.236 127.776C255.341 128.85 254.7 129.931 254.276 131.081C253.83 132.229 253.605 133.493 253.605 134.839C253.605 137.87 254.629 140.235 256.65 141.868C257.187 142.302 257.799 142.681 258.469 142.995C258.657 143.083 258.854 143.125 259.048 143.124C259.562 143.124 260.055 142.833 260.287 142.337C260.608 141.653 260.313 140.839 259.629 140.519C259.158 140.298 258.734 140.037 258.368 139.741C257.003 138.638 256.339 137.034 256.339 134.839C256.339 133.829 256.504 132.895 256.829 132.062C256.832 132.053 256.835 132.044 256.838 132.036C257.152 131.18 257.642 130.359 258.328 129.536C259.055 128.68 259.953 127.877 260.998 127.151C261.004 127.146 261.011 127.142 261.017 127.137C261.972 126.449 263.085 125.753 264.33 125.063C265.773 125.778 267.089 126.508 268.25 127.237C268.255 127.241 268.261 127.245 268.267 127.248C269.49 127.991 270.531 128.797 271.37 129.652C272.125 130.407 272.681 131.222 273.021 132.073C273.025 132.081 273.028 132.09 273.032 132.098C273.381 132.922 273.558 133.879 273.558 134.942C273.558 137.007 272.911 138.57 271.581 139.718C271.265 139.99 270.902 140.235 270.502 140.444C269.833 140.795 269.575 141.621 269.925 142.29C270.275 142.959 271.101 143.217 271.77 142.867C272.356 142.56 272.893 142.197 273.367 141.788C275.308 140.113 276.292 137.809 276.292 134.942C276.292 133.515 276.044 132.204 275.555 131.044C275.076 129.853 274.319 128.734 273.313 127.728V127.728Z" fill="#D8A47F"/>
<path d="M265.103 141.495H265.102C264.347 141.495 263.735 142.107 263.735 142.862C263.735 143.617 264.348 144.229 265.103 144.229C265.858 144.229 266.47 143.617 266.47 142.862C266.47 142.107 265.858 141.495 265.103 141.495Z" fill="#D8A47F"/>
</g>
<g clip-path="url(#clip5)">
<path d="M50.8685 253.312C51.9617 254.036 53.3107 254.833 55.114 255.822C55.3189 255.934 55.5452 255.99 55.7715 255.99C56.0124 255.99 56.2531 255.927 56.4676 255.8C59.0974 254.244 61.0634 252.631 62.4734 250.873C63.984 249.009 64.7498 246.88 64.7498 244.544C64.7498 243.253 64.5573 242.042 64.1776 240.943C64.1743 240.934 64.1709 240.924 64.1674 240.914C63.7368 239.752 63.0835 238.769 62.2257 237.993C61.3893 237.236 60.3301 236.644 59.0775 236.233C59.0709 236.231 59.0645 236.229 59.0579 236.227C57.867 235.856 56.4787 235.668 54.9315 235.668C51.792 235.668 49.3722 236.444 47.7395 237.975C46.0878 239.523 45.2504 241.653 45.2504 244.303C45.2504 245.557 45.4607 246.716 45.8754 247.749C46.2784 248.811 46.9151 249.813 47.7682 250.729C48.5456 251.596 49.5885 252.465 50.8685 253.312V253.312ZM49.6097 239.97C50.7189 238.93 52.5095 238.403 54.9315 238.403C56.1982 238.403 57.3096 238.548 58.2349 238.835C59.1292 239.129 59.8345 239.517 60.3911 240.021C60.9236 240.502 61.3183 241.101 61.598 241.85C61.8749 242.658 62.0154 243.564 62.0154 244.544C62.0154 246.261 61.4705 247.768 60.3447 249.156C59.2734 250.492 57.7259 251.798 55.7387 253.043C54.3448 252.265 53.2649 251.619 52.3776 251.032C51.2874 250.31 50.4192 249.592 49.7969 248.895C49.79 248.888 49.7832 248.88 49.7764 248.873C49.1594 248.213 48.7059 247.505 48.4283 246.769C48.4246 246.76 48.4207 246.75 48.4168 246.74C48.1301 246.03 47.9849 245.21 47.9849 244.304C47.9847 242.413 48.5162 240.995 49.6097 239.97V239.97Z" fill="#D8A47F"/>
<path d="M78.3959 270.468C77.7797 268.801 76.8555 267.182 75.6426 265.647C74.4429 264.152 72.9885 262.763 71.32 261.52C70.2592 260.71 69.0643 259.915 67.7509 259.143C68.775 258.466 69.7304 257.746 70.6082 256.989C72.0814 255.7 73.2851 254.382 74.288 252.96C75.2708 251.566 76.0665 250.025 76.6527 248.379C76.6543 248.375 76.6557 248.371 76.6574 248.366C77.2187 246.738 77.5034 245.042 77.5034 243.326C77.5034 240.784 77.072 238.426 76.2212 236.318C75.3572 234.176 74.0084 232.305 72.2073 230.75C70.4172 229.221 68.1291 228.029 65.4038 227.206C62.6982 226.395 59.5474 226 55.7715 226C51.9766 226 48.7231 226.429 45.823 227.311C42.9225 228.2 40.4523 229.5 38.4815 231.176C36.4908 232.867 34.9814 234.894 33.9989 237.192C33.0021 239.481 32.4968 242.053 32.4968 244.835C32.4968 246.757 32.7728 248.588 33.3168 250.277C33.8559 251.95 34.6714 253.512 35.7357 254.912C36.777 256.301 38.0428 257.586 39.4895 258.725C40.3334 259.4 41.2461 260.049 42.2182 260.664C40.8869 261.451 39.6569 262.265 38.5424 263.098C36.8014 264.413 35.3486 265.812 34.2311 267.249C33.0746 268.713 32.1704 270.37 31.5396 272.186C30.9461 273.948 30.6452 275.842 30.6452 277.817C30.6452 280.72 31.1587 283.331 32.1717 285.578C33.2085 287.878 34.768 289.831 36.8116 291.387C38.8301 292.91 41.3422 294.078 44.2784 294.857C47.1354 295.616 50.5121 296 54.3144 296C58.2718 296 61.8272 295.568 64.8815 294.715C68.0233 293.839 70.6848 292.537 72.7859 290.853C74.9359 289.148 76.5931 287.007 77.7132 284.487C78.8025 282.013 79.3547 279.181 79.3547 276.068C79.3548 274.074 79.0322 272.19 78.3959 270.468V270.468ZM75.2128 283.381C74.2757 285.489 72.8875 287.282 71.0811 288.715C69.264 290.172 66.9309 291.305 64.1464 292.082C61.3315 292.867 58.0235 293.266 54.3144 293.266C50.7486 293.266 47.608 292.912 44.98 292.215C42.3874 291.526 40.1934 290.514 38.4633 289.208C36.7906 287.935 35.5124 286.335 34.6645 284.454C33.812 282.563 33.3797 280.33 33.3797 277.816C33.3797 276.14 33.6325 274.539 34.1269 273.071C34.6604 271.535 35.3963 270.185 36.3832 268.936C37.36 267.68 38.6409 266.45 40.185 265.284C41.7491 264.115 43.5747 262.976 45.611 261.9C46.0571 261.664 46.3371 261.202 46.3393 260.698C46.3415 260.193 46.0657 259.728 45.6218 259.488C43.9875 258.606 42.499 257.631 41.1896 256.583C39.9034 255.57 38.8349 254.487 37.9181 253.264C37.0235 252.088 36.3699 250.836 35.9197 249.439C35.4629 248.021 35.2313 246.472 35.2313 244.835C35.2313 242.431 35.6602 240.227 36.5098 238.276C37.3279 236.361 38.5868 234.674 40.2524 233.26C41.9384 231.826 44.0821 230.704 46.6216 229.926C49.221 229.135 52.2995 228.734 55.7718 228.734C59.229 228.734 62.2055 229.101 64.616 229.824C66.9745 230.537 68.9312 231.548 70.4263 232.825C71.8896 234.088 72.9863 235.607 73.6859 237.341C74.4049 239.123 74.7694 241.137 74.7694 243.326C74.7694 244.756 74.5423 246.111 74.075 247.468C73.5723 248.877 72.8923 250.195 72.0536 251.384C71.1774 252.627 70.1158 253.787 68.8153 254.925C67.5199 256.042 66.0215 257.079 64.3616 258.006C63.9228 258.252 63.654 258.717 63.6614 259.22C63.6688 259.722 63.9511 260.18 64.3968 260.412C66.4171 261.465 68.1904 262.57 69.6672 263.698C69.6716 263.701 69.6758 263.705 69.6803 263.708C71.1656 264.814 72.4542 266.042 73.5041 267.35C74.5321 268.651 75.3151 270.019 75.8314 271.416C76.3626 272.854 76.6207 274.375 76.6207 276.068C76.6204 278.799 76.1462 281.261 75.2128 283.381V283.381Z" fill="#D8A47F"/>
<path d="M63.3128 269.728C62.3256 268.722 61.1088 267.776 59.6958 266.917C58.2841 266.03 56.6673 265.148 54.8897 264.293C54.4973 264.105 54.0381 264.114 53.654 264.319C52.0552 265.172 50.6332 266.044 49.4275 266.912C48.1925 267.772 47.1215 268.733 46.2359 269.776C45.3407 270.85 44.6996 271.931 44.2761 273.081C43.8305 274.229 43.6048 275.493 43.6048 276.839C43.6048 279.87 44.6292 282.235 46.6497 283.868C47.1867 284.302 47.7988 284.681 48.4692 284.995C48.6568 285.083 48.854 285.125 49.0483 285.124C49.5623 285.124 50.0548 284.833 50.2873 284.337C50.6077 283.653 50.313 282.839 49.6293 282.519C49.1583 282.298 48.7341 282.037 48.3684 281.741C47.0029 280.638 46.3392 279.034 46.3392 276.839C46.3392 275.829 46.5039 274.895 46.8288 274.062C46.832 274.053 46.8353 274.044 46.8385 274.036C47.1521 273.18 47.6421 272.359 48.3283 271.536C49.055 270.68 49.9533 269.877 50.9981 269.151C51.0043 269.146 51.0106 269.142 51.0167 269.137C51.9721 268.449 53.0846 267.753 54.3305 267.063C55.7728 267.778 57.0887 268.508 58.2497 269.237C58.2554 269.241 58.2612 269.245 58.2671 269.248C59.4897 269.991 60.5308 270.797 61.37 271.652C62.1255 272.407 62.6813 273.222 63.0214 274.073C63.0249 274.081 63.0286 274.09 63.0321 274.098C63.3812 274.922 63.5581 275.879 63.5581 276.942C63.5581 279.007 62.9113 280.57 61.5806 281.718C61.265 281.99 60.9022 282.235 60.5019 282.444C59.8329 282.795 59.5746 283.621 59.9248 284.29C60.2752 284.959 61.1012 285.217 61.7702 284.867C62.3559 284.56 62.8932 284.197 63.3672 283.788C65.3082 282.113 66.2924 279.809 66.2924 276.942C66.2924 275.515 66.0444 274.204 65.5551 273.044C65.0763 271.853 64.3189 270.734 63.3128 269.728V269.728Z" fill="#D8A47F"/>
<path d="M55.103 283.495H55.1019C54.3469 283.495 53.7352 284.107 53.7352 284.862C53.7352 285.617 54.3479 286.229 55.103 286.229C55.8581 286.229 56.4701 285.617 56.4701 284.862C56.4701 284.107 55.8579 283.495 55.103 283.495Z" fill="#D8A47F"/>
</g>
<defs>
<filter id="filter0_d" x="79" y="166" width="141" height="57" filterUnits="userSpaceOnUse" color-interpolation-filters="sRGB">
<feFlood flood-opacity="0" result="BackgroundImageFix"/>
<feColorMatrix in="SourceAlpha" type="matrix" values="0 0 0 0 0 0 0 0 0 0 0 0 0 0 0 0 0 0 127 0"/>
<feOffset dy="5"/>
<feGaussianBlur stdDeviation="2"/>
<feColorMatrix type="matrix" values="0 0 0 0 0 0 0 0 0 0 0 0 0 0 0 0 0 0 0.25 0"/>
<feBlend mode="normal" in2="BackgroundImageFix" result="effect1_dropShadow"/>
<feBlend mode="normal" in="SourceGraphic" in2="effect1_dropShadow" result="shape"/>
</filter>
<filter id="filter1_d" x="103.504" y="176.504" width="92.7091" height="35.216" filterUnits="userSpaceOnUse" color-interpolation-filters="sRGB">
<feFlood flood-opacity="0" result="BackgroundImageFix"/>
<feColorMatrix in="SourceAlpha" type="matrix" values="0 0 0 0 0 0 0 0 0 0 0 0 0 0 0 0 0 0 127 0"/>
<feOffset dy="4"/>
<feGaussianBlur stdDeviation="2"/>
<feColorMatrix type="matrix" values="0 0 0 0 0 0 0 0 0 0 0 0 0 0 0 0 0 0 0.25 0"/>
<feBlend mode="normal" in2="BackgroundImageFix" result="effect1_dropShadow"/>
<feBlend mode="normal" in="SourceGraphic" in2="effect1_dropShadow" result="shape"/>
</filter>
<clipPath id="clip0">
<rect width="70" height="70" fill="white" transform="translate(20 14)"/>
</clipPath>
<clipPath id="clip1">
<rect width="70" height="70" fill="white" transform="translate(230 302)"/>
</clipPath>
<clipPath id="clip2">
<rect width="70" height="70" fill="white" transform="translate(160 14)"/>
</clipPath>
<clipPath id="clip3">
<rect width="70" height="70" fill="white" transform="translate(90 302)"/>
</clipPath>
<clipPath id="clip4">
<rect width="70" height="70" fill="white" transform="translate(230 84)"/>
</clipPath>
<clipPath id="clip5">
<rect width="70" height="70" fill="white" transform="translate(20 226)"/>
</clipPath>
</defs>
</svg>
