<svg viewBox="0 0 382 382" fill="none" xmlns="http://www.w3.org/2000/svg">
<!-- width="382" height="382"  -->
<g id="linkedin 1">
<path id="Vector" d="M34.555 3.5H347.445C364.596 3.5 378.5 17.404 378.5 34.555V347.444C378.5 364.596 364.596 378.5 347.444 378.5H34.555C17.4041 378.5 3.5 364.596 3.5 347.444V34.555C3.5 17.404 17.404 3.5 34.555 3.5ZM108.151 343.4C115.638 343.4 121.707 337.331 121.707 329.844V150.403C121.707 142.916 115.638 136.847 108.151 136.847H65.345C57.858 136.847 51.789 142.916 51.789 150.403V329.844C51.789 337.331 57.858 343.4 65.345 343.4H108.151ZM42.582 82.766C42.582 107.158 62.356 126.932 86.748 126.932C111.141 126.932 130.914 107.158 130.914 82.766C130.914 58.374 111.14 38.6 86.748 38.6C62.356 38.6 42.582 58.374 42.582 82.766ZM332.664 343.4C339.703 343.4 345.41 337.693 345.41 330.654V243.808L345.41 242.923C345.412 224.227 345.416 197.375 336.159 175.072C331.418 163.649 324.197 153.271 313.208 145.772C302.214 138.268 287.726 133.836 268.779 133.836C251.743 133.836 238.94 136.956 228.953 142.298C222.482 145.76 217.301 150.097 212.967 154.951V149.593C212.967 142.554 207.26 136.847 200.221 136.847H155.795C148.756 136.847 143.049 142.554 143.049 149.593V330.654C143.049 337.693 148.756 343.4 155.795 343.4H200.221C207.261 343.4 212.967 337.693 212.967 330.654V233.731C213.54 227.388 215.215 217.552 219.919 209.374C224.55 201.325 232.021 194.965 244.671 194.965C253.064 194.965 258.826 197.384 262.894 200.933C267.023 204.537 269.707 209.57 271.41 215.269C274.341 225.079 274.151 235.959 274.026 243.072C274.004 244.339 273.984 245.486 273.984 246.486V330.654C273.984 337.693 279.691 343.4 286.73 343.4H332.664Z" 
fill="#0077B7" stroke="black" stroke-width="7"/>
</g>
</svg>
