<svg  viewBox="0 0 300 400" fill="none" xmlns="http://www.w3.org/2000/svg">
<g id="namecard">
<g clip-path="url(#clip0)">
<rect width="300" height="400" rx="7" fill="#F0C78E"/>
<path id="backcir" d="M150 176C189.664 176 221.818 143.381 221.818 103.143C221.818 62.905 189.664 30.2857 150 30.2857C110.336 30.2857 78.1818 62.905 78.1818 103.143C78.1818 143.381 110.336 176 150 176Z" fill="#0F7173"/>
<g id="yash 1">
<g id="Avataaar">
<g id="Avataaar/Circle">
<g id="Group">
<mask id="mask0" mask-type="alpha" maskUnits="userSpaceOnUse" x="71" y="6" width="158" height="170">
<g id="mask 4">
<path id="Vector" d="M78.1818 103.143C78.1818 143.381 110.336 176 150 176C189.664 176 221.818 143.381 221.818 103.143H229V6H71V103.143H78.1818Z" fill="white"/>
</g>
</mask>
<g mask="url(#mask0)">
<g id="Avataaar_2">
<g id="Body">
<mask id="mask1" mask-type="alpha" maskUnits="userSpaceOnUse" x="90" y="27" width="120" height="149">
<g id="mask 6">
<path id="Vector_2" d="M164.364 115.657V126.821H166.758C190.556 126.821 209.848 146.393 209.848 170.536V176H90.1515V170.536C90.1515 146.393 109.444 126.821 133.242 126.821H135.636V115.657C125.32 110.685 117.905 100.524 116.667 88.4993C113.181 87.9994 110.5 84.9602 110.5 81.2857V72.7857C110.5 69.1757 113.088 66.1788 116.485 65.6007V61.8571C116.485 43.0795 131.49 27.8571 150 27.8571C168.51 27.8571 183.515 43.0795 183.515 61.8571V65.6007C186.912 66.1788 189.5 69.1757 189.5 72.7857V81.2857C189.5 84.9602 186.819 87.9994 183.332 88.4993C182.095 100.524 174.68 110.685 164.364 115.657Z" fill="white"/>
</g>
</mask>
<g mask="url(#mask1)">
<path id="Vector_3" d="M164.364 115.657V126.821H166.758C190.556 126.821 209.848 146.393 209.848 170.536V176H90.1515V170.536C90.1515 146.393 109.444 126.821 133.242 126.821H135.636V115.657C125.32 110.685 117.905 100.524 116.667 88.4993C113.181 87.9994 110.5 84.9602 110.5 81.2857V72.7857C110.5 69.1757 113.088 66.1788 116.485 65.6007V61.8571C116.485 43.0795 131.49 27.8571 150 27.8571C168.51 27.8571 183.515 43.0795 183.515 61.8571V65.6007C186.912 66.1788 189.5 69.1757 189.5 72.7857V81.2857C189.5 84.9602 186.819 87.9994 183.332 88.4993C182.095 100.524 174.68 110.685 164.364 115.657Z" fill="#D0C6AC"/>
<g id="Skin/&#240;&#159;&#145;&#182;&#240;&#159;&#143;&#189; 03 Brown">
<g id="Color">
<path id="Vector_4" d="M229 27.8571H71V176H229V27.8571Z" fill="#EDB98A"/>
</g>
</g>
<path id="Neck Shadow" fill-rule="evenodd" clip-rule="evenodd" d="M183.515 75.8214V89.7857C183.515 108.563 168.51 123.786 150 123.786C131.49 123.786 116.485 108.563 116.485 89.7857V75.8214V84.9286C116.485 103.706 131.49 118.929 150 118.929C168.51 118.929 183.515 103.706 183.515 84.9286V75.8214Z" fill="black" fill-opacity="0.1"/>
</g>
</g>
<g id="Clothing/Hoodie">
<mask id="mask2" mask-type="alpha" maskUnits="userSpaceOnUse" x="90" y="117" width="120" height="59">
<g id="react mask 23">
<path id="Vector_5" fill-rule="evenodd" clip-rule="evenodd" d="M135.636 117.15C124.912 118.368 116.652 121.692 116.487 130.249C101.012 136.881 90.1515 152.421 90.1515 170.535V176H209.848V170.535C209.848 152.421 198.988 136.881 183.513 130.249C183.348 121.692 175.088 118.368 164.364 117.15V128.643C164.364 136.69 157.933 143.214 150 143.214C142.067 143.214 135.636 136.69 135.636 128.643V117.15Z" fill="white"/>
</g>
</mask>
<g mask="url(#mask2)">
<path id="Hoodie" fill-rule="evenodd" clip-rule="evenodd" d="M135.636 117.15C124.912 118.368 116.652 121.692 116.487 130.249C101.012 136.881 90.1515 152.421 90.1515 170.535V176H209.848V170.535C209.848 152.421 198.988 136.881 183.513 130.249C183.348 121.692 175.088 118.368 164.364 117.15V128.643C164.364 136.69 157.933 143.214 150 143.214C142.067 143.214 135.636 136.69 135.636 128.643V117.15Z" fill="#B7C1DB"/>
<g id="Color/Palette/Gray 01">
<path id="&#240;&#159;&#150;&#141;Color" d="M229 109.214H71V176H229V109.214Z" fill="#25557C"/>
</g>
<path id="Straps" fill-rule="evenodd" clip-rule="evenodd" d="M132.045 146.699V176H127.856V144.52C129.175 145.315 130.577 146.044 132.045 146.699ZM172.144 144.52V169.018C172.144 170.191 171.206 171.143 170.049 171.143C168.892 171.143 167.954 170.191 167.954 169.018V146.699C169.423 146.044 170.825 145.315 172.144 144.52Z" fill="#F4F4F4"/>
<path id="Shadow" fill-rule="evenodd" clip-rule="evenodd" d="M125.438 116.94C116.431 118.668 110.201 122.112 110.201 128.83C110.201 140.798 129.973 150.5 150 150.5C170.027 150.5 189.799 140.798 189.799 128.83C189.799 122.112 183.569 118.668 174.562 116.94C179.999 118.974 183.515 122.393 183.515 128.082C183.515 140.463 166.865 150.5 150 150.5C133.135 150.5 116.485 140.463 116.485 128.082C116.485 122.393 120.001 118.974 125.438 116.94Z" fill="black" fill-opacity="0.16"/>
</g>
</g>
<g id="Face">
<g id="Mouth/Smile">
<mask id="mask3" mask-type="alpha" maskUnits="userSpaceOnUse" x="138" y="95" width="24" height="12">
<g id="react mask 4">
<path id="Vector_6" fill-rule="evenodd" clip-rule="evenodd" d="M138.699 96.542C139.332 102.305 144.15 106.786 150 106.786C155.868 106.786 160.697 102.277 161.306 96.4886C161.355 96.0227 160.843 95.25 160.2 95.25C151.286 95.25 144.457 95.25 139.878 95.25C139.231 95.25 138.636 95.9655 138.699 96.542Z" fill="white"/>
</g>
</mask>
<g mask="url(#mask3)">
<path id="Mouth" fill-rule="evenodd" clip-rule="evenodd" d="M138.699 96.542C139.332 102.305 144.15 106.786 150 106.786C155.868 106.786 160.697 102.277 161.306 96.4886C161.355 96.0227 160.843 95.25 160.2 95.25C151.286 95.25 144.457 95.25 139.878 95.25C139.231 95.25 138.636 95.9655 138.699 96.542Z" fill="black" fill-opacity="0.7"/>
<path id="Teeth" d="M156.583 88.5714H144.015C142.363 88.5714 141.023 89.9305 141.023 91.6071V95.25C141.023 96.9266 142.363 98.2857 144.015 98.2857H156.583C158.236 98.2857 159.576 96.9266 159.576 95.25V91.6071C159.576 89.9305 158.236 88.5714 156.583 88.5714Z" fill="white"/>
<g id="Tongue">
<g id="Group_2">
<path id="Vector_7" d="M147.008 115.286C150.643 115.286 153.591 112.296 153.591 108.607C153.591 104.919 150.643 101.929 147.008 101.929C143.372 101.929 140.424 104.919 140.424 108.607C140.424 112.296 143.372 115.286 147.008 115.286Z" fill="#FF4F6D"/>
<path id="Vector_8" d="M152.992 115.286C156.628 115.286 159.576 112.296 159.576 108.607C159.576 104.919 156.628 101.929 152.992 101.929C149.357 101.929 146.409 104.919 146.409 108.607C146.409 112.296 149.357 115.286 152.992 115.286Z" fill="#FF4F6D"/>
</g>
</g>
</g>
</g>
<g id="Nose/Default">
<path id="Nose" fill-rule="evenodd" clip-rule="evenodd" d="M142.818 84.9285C142.818 87.6111 146.034 89.7857 150 89.7857C153.966 89.7857 157.182 87.6111 157.182 84.9285" fill="black" fill-opacity="0.16"/>
</g>
<g id="Eyes/Squint &#240;&#159;&#152;&#138;">
<g id="Eye">
<mask id="mask4" mask-type="alpha" maskUnits="userSpaceOnUse" x="126" y="68" width="17" height="10">
<g id="react mask 26">
<path id="Vector_9" fill-rule="evenodd" clip-rule="evenodd" d="M134.439 77.0649C140.191 77.0649 142.818 79.7675 142.818 75.5553C142.818 71.3432 139.067 68.5357 134.439 68.5357C129.812 68.5357 126.061 71.3432 126.061 75.5553C126.061 79.7675 128.688 77.0649 134.439 77.0649Z" fill="white"/>
</g>
</mask>
<g mask="url(#mask4)">
<path id="The white stuff" fill-rule="evenodd" clip-rule="evenodd" d="M134.439 77.0649C140.191 77.0649 142.818 79.7675 142.818 75.5553C142.818 71.3432 139.067 68.5357 134.439 68.5357C129.812 68.5357 126.061 71.3432 126.061 75.5553C126.061 79.7675 128.688 77.0649 134.439 77.0649Z" fill="white"/>
<path id="Vector_10" d="M134.439 78.25C136.423 78.25 138.03 76.619 138.03 74.6071C138.03 72.5952 136.423 70.9643 134.439 70.9643C132.456 70.9643 130.849 72.5952 130.849 74.6071C130.849 76.619 132.456 78.25 134.439 78.25Z" fill="black" fill-opacity="0.7"/>
</g>
</g>
<g id="Eye_2">
<mask id="mask5" mask-type="alpha" maskUnits="userSpaceOnUse" x="157" y="68" width="17" height="10">
<g id="react mask 27">
<path id="Vector_11" fill-rule="evenodd" clip-rule="evenodd" d="M165.561 77.0649C171.312 77.0649 173.939 79.7675 173.939 75.5553C173.939 71.3432 170.188 68.5357 165.561 68.5357C160.933 68.5357 157.182 71.3432 157.182 75.5553C157.182 79.7675 159.809 77.0649 165.561 77.0649Z" fill="white"/>
</g>
</mask>
<g mask="url(#mask5)">
<path id="Eyeball Mask" fill-rule="evenodd" clip-rule="evenodd" d="M165.561 77.0649C171.312 77.0649 173.939 79.7675 173.939 75.5553C173.939 71.3432 170.188 68.5357 165.561 68.5357C160.933 68.5357 157.182 71.3432 157.182 75.5553C157.182 79.7675 159.809 77.0649 165.561 77.0649Z" fill="white"/>
<path id="Vector_12" d="M165.561 78.25C167.544 78.25 169.152 76.619 169.152 74.6071C169.152 72.5952 167.544 70.9643 165.561 70.9643C163.577 70.9643 161.97 72.5952 161.97 74.6071C161.97 76.619 163.577 78.25 165.561 78.25Z" fill="black" fill-opacity="0.7"/>
</g>
</g>
</g>
<g id="Eyebrow/Natural/Default Natural">
<path id="Eyebrow" fill-rule="evenodd" clip-rule="evenodd" d="M132.373 59.5187C128.898 59.6815 123.279 62.2434 123.424 65.7988C123.429 65.9152 123.597 65.9663 123.679 65.8768C125.328 64.08 137.035 62.2645 141.158 63.2266C141.535 63.3148 141.822 62.9371 141.583 62.6643C139.535 60.3279 135.487 59.3697 132.373 59.5187Z" fill="black" fill-opacity="0.6"/>
<path id="Eyebrow_2" fill-rule="evenodd" clip-rule="evenodd" d="M168.225 59.5187C171.701 59.6815 177.32 62.2434 177.175 65.7988C177.17 65.9152 177.001 65.9663 176.919 65.8768C175.27 64.08 163.564 62.2645 159.44 63.2266C159.063 63.3148 158.776 62.9371 159.015 62.6643C161.063 60.3279 165.112 59.3697 168.225 59.5187Z" fill="black" fill-opacity="0.6"/>
</g>
</g>
<g id="Top">
<mask id="mask6" mask-type="alpha" maskUnits="userSpaceOnUse" x="71" y="6" width="158" height="170">
<g id="react mask 15">
<path id="Vector_13" d="M229 6H71V176H229V6Z" fill="white"/>
</g>
</mask>
<g mask="url(#mask6)">
<g id="Top/Short Hair/Dreads 01">
<g id="Group_3">
<g id="Hair">
<mask id="mask7" mask-type="alpha" maskUnits="userSpaceOnUse" x="114" y="17" width="71" height="50">
<g id="react mask 14">
<path id="Vector_14" fill-rule="evenodd" clip-rule="evenodd" d="M182.217 50.8853C183.269 51.4855 184.102 57.5027 184.142 59.8036C184.167 61.2234 184.19 66.6378 182.71 66.1697C182.259 66.0272 181.571 63.1608 181.473 61.4832C181.375 59.8056 180.436 54.0979 178.995 51.4718C178.665 50.8717 177.722 49.818 178.13 49.3104C178.635 48.681 179.126 49.0462 179.743 49.2982C180.41 49.5711 182.099 50.8181 182.217 50.8853ZM182.699 49.0808C182.253 49.665 179.204 48.025 177.932 47.3124C167.252 41.326 165.179 39.4224 148.352 39.6708C131.525 39.9192 119.996 47.9172 119.348 48.7352C118.897 49.3044 118.321 50.8241 117.847 55.0575C117.374 59.2908 117.978 66.8829 116.264 66.8737C114.804 66.8659 114.486 52.4325 115.117 46.7067C115.213 45.8276 115.586 44.2551 115.316 43.4643C115.08 42.7736 113.927 42.775 114.111 41.6241C114.32 40.3141 115.622 40.9648 116.189 40.3384C117.263 39.1518 115.606 38.871 115.332 37.8329C114.923 36.2899 116.104 35.8919 117.167 35.4046C118.344 34.8658 118.191 35.339 119.146 34.2837C117.87 33.3351 117.409 32.0427 119.156 31.3494C119.897 31.0549 121.827 31.4447 122.409 31.0022C122.56 30.8869 122.62 30.2255 122.714 30.0902C123.642 28.7432 123.413 27.768 123.319 26.2557C123.241 25.0183 123.252 23.8823 124.712 23.7587C125.687 23.6763 126.479 24.484 127.352 24.7218C128.321 24.9857 127.957 25.1783 128.716 24.6484C130.048 23.7175 129.142 21.9037 130.198 20.8216C131.648 19.3366 132.598 21.5133 133.762 21.6775C136.289 22.0347 135.478 19.4311 136.975 18.4771C138.763 17.3377 138.936 19.8436 140.053 19.9329C141.02 20.0099 142.763 18.1152 143.607 17.7623C146.11 16.7143 147.35 19.6631 149.733 19.287C151.462 19.014 151.929 18.7911 153.49 19.7891C155.004 20.7579 155.364 20.0653 157.08 20.0515C158.291 20.0422 159.034 21.0694 160.047 21.1766C160.553 21.2302 161.037 20.6959 161.579 20.7295C163.517 20.8487 163.639 23.3904 165.179 24.0902C166.585 24.7296 168.238 23.8312 169.634 23.665C173.04 23.2595 170.708 26.4865 170.804 28.4125C172.141 28.7289 173.498 27.4631 174.828 27.6961C176.924 28.0631 176.133 30.2663 175.647 31.7516C177.099 31.7251 180.89 30.09 181.83 32.1812C182.315 33.2595 181.185 34.699 181.204 35.7952C181.23 37.3382 182.347 38.6149 182.743 40.0753C183.276 42.0467 184.037 47.3306 182.699 49.0808Z" fill="white"/>
</g>
</mask>
<g mask="url(#mask7)">
<path id="Dreads With Cut" fill-rule="evenodd" clip-rule="evenodd" d="M182.217 50.8853C183.269 51.4855 184.102 57.5027 184.142 59.8036C184.167 61.2234 184.19 66.6378 182.71 66.1697C182.259 66.0272 181.571 63.1608 181.473 61.4832C181.375 59.8056 180.436 54.0979 178.995 51.4718C178.665 50.8717 177.722 49.818 178.13 49.3104C178.635 48.681 179.126 49.0462 179.743 49.2982C180.41 49.5711 182.099 50.8181 182.217 50.8853ZM182.699 49.0808C182.253 49.665 179.204 48.025 177.932 47.3124C167.252 41.326 165.179 39.4224 148.352 39.6708C131.525 39.9192 119.996 47.9172 119.348 48.7352C118.897 49.3044 118.321 50.8241 117.847 55.0575C117.374 59.2908 117.978 66.8829 116.264 66.8737C114.804 66.8659 114.486 52.4325 115.117 46.7067C115.213 45.8276 115.586 44.2551 115.316 43.4643C115.08 42.7736 113.927 42.775 114.111 41.6241C114.32 40.3141 115.622 40.9648 116.189 40.3384C117.263 39.1518 115.606 38.871 115.332 37.8329C114.923 36.2899 116.104 35.8919 117.167 35.4046C118.344 34.8658 118.191 35.339 119.146 34.2837C117.87 33.3351 117.409 32.0427 119.156 31.3494C119.897 31.0549 121.827 31.4447 122.409 31.0022C122.56 30.8869 122.62 30.2255 122.714 30.0902C123.642 28.7432 123.413 27.768 123.319 26.2557C123.241 25.0183 123.252 23.8823 124.712 23.7587C125.687 23.6763 126.479 24.484 127.352 24.7218C128.321 24.9857 127.957 25.1783 128.716 24.6484C130.048 23.7175 129.142 21.9037 130.198 20.8216C131.648 19.3366 132.598 21.5133 133.762 21.6775C136.289 22.0347 135.478 19.4311 136.975 18.4771C138.763 17.3377 138.936 19.8436 140.053 19.9329C141.02 20.0099 142.763 18.1152 143.607 17.7623C146.11 16.7143 147.35 19.6631 149.733 19.287C151.462 19.014 151.929 18.7911 153.49 19.7891C155.004 20.7579 155.364 20.0653 157.08 20.0515C158.291 20.0422 159.034 21.0694 160.047 21.1766C160.553 21.2302 161.037 20.6959 161.579 20.7295C163.517 20.8487 163.639 23.3904 165.179 24.0902C166.585 24.7296 168.238 23.8312 169.634 23.665C173.04 23.2595 170.708 26.4865 170.804 28.4125C172.141 28.7289 173.498 27.4631 174.828 27.6961C176.924 28.0631 176.133 30.2663 175.647 31.7516C177.099 31.7251 180.89 30.09 181.83 32.1812C182.315 33.2595 181.185 34.699 181.204 35.7952C181.23 37.3382 182.347 38.6149 182.743 40.0753C183.276 42.0467 184.037 47.3306 182.699 49.0808Z" fill="#2E3257"/>
<g id="Skin/&#240;&#159;&#145;&#182;&#240;&#159;&#143;&#189; 03 Brown_2">
<g id="Color_2">
<path id="Vector_15" d="M229 6H71V176H229V6Z" fill="#2C1B18"/>
</g>
</g>
</g>
</g>
<g id="Top/ Resources/Prescription 02">
<g id="Wayfarers" filter="url(#filter0_d)">
<path id="Left" d="M131.447 86.75H129.796C121.461 86.75 116.485 82.0968 116.485 74.3036C116.485 68.0057 117.572 61.8571 130.567 61.8571H132.327C145.322 61.8571 146.409 68.0057 146.409 74.3036C146.409 81.631 140.257 86.75 131.447 86.75ZM130.481 65.5C118.879 65.5 118.879 69.6535 118.879 74.9117C118.879 79.2044 120.744 84.3214 129.634 84.3214H131.447C138.847 84.3214 144.015 80.4521 144.015 74.9117C144.015 69.6535 144.015 65.5 132.413 65.5H130.481Z" fill="#252C2F"/>
<path id="Right" d="M168.553 86.75H166.903C158.567 86.75 153.591 82.0968 153.591 74.3036C153.591 68.0057 154.678 61.8571 167.673 61.8571H169.433C182.428 61.8571 183.515 68.0057 183.515 74.3036C183.515 81.631 177.364 86.75 168.553 86.75ZM167.587 65.5C155.985 65.5 155.985 69.6535 155.985 74.9117C155.985 79.2044 157.852 84.3214 166.74 84.3214H168.553C175.953 84.3214 181.121 80.4521 181.121 74.9117C181.121 69.6535 181.121 65.5 169.519 65.5H167.587Z" fill="#252C2F"/>
<path id="Stuff" d="M112.867 65.3613C113.281 64.9513 117.807 61.8571 130.549 61.8571C141.233 61.8571 143.495 62.982 146.918 64.6815L147.169 64.807C147.407 64.8923 148.624 65.3117 150.047 65.3578C151.344 65.3013 152.454 64.9447 152.778 64.8304C156.685 62.9027 160.51 61.8571 169.451 61.8571C182.193 61.8571 186.72 64.9513 187.133 65.3613C188.111 65.3613 188.902 66.1445 188.902 67.1134V68.8655C188.902 69.8344 188.111 70.6176 187.133 70.6176C187.133 70.6176 183.003 70.6176 183.003 72.3696C183.003 74.1217 181.829 69.8344 181.829 68.8655V67.159C179.672 66.3217 175.812 64.763 169.451 64.763C162.364 64.763 158.834 66.0379 155.807 67.3039L155.841 67.3867L155.839 68.5926L154.512 71.8408L152.873 71.1834C152.727 71.1247 152.411 71.0192 151.973 70.9096C150.752 70.6041 149.497 70.5111 148.387 70.7423C147.979 70.8271 147.601 70.9543 147.255 71.1262L145.673 71.9101L144.091 68.7763L144.161 67.3832L144.21 67.2649C141.599 66.0306 139.191 64.763 130.549 64.763C124.189 64.763 120.328 66.3211 118.172 67.1584V68.8655C118.172 69.8344 116.403 74.1217 116.403 72.3696C116.403 70.6176 112.867 70.6176 112.867 70.6176C111.891 70.6176 111.099 69.8344 111.099 68.8655V67.1134C111.099 66.1445 111.891 65.3613 112.867 65.3613Z" fill="#252C2F"/>
</g>
</g>
</g>
</g>
</g>
</g>
</g>
</g>
</g>
</g>
</g>
</g>
<g id="nameplate">
<g id="Rectangle 1" filter="url(#filter1_d)">
<rect x="38.716" y="211" width="234.802" height="48" rx="10" fill="#0F7173"/>
<rect x="39.216" y="211.5" width="233.802" height="47" rx="9.5" stroke="#D8A47F"/>
</g>
<g id="Yash Dave" filter="url(#filter2_d)">
<path d="M82.8048 219.908L74.6328 235.532V245H71.3568V235.532L63.1488 219.908H66.7848L72.9768 232.616L79.1688 219.908H82.8048ZM85.0363 235.064C85.0363 233.048 85.4443 231.284 86.2603 229.772C87.0763 228.236 88.1923 227.048 89.6083 226.208C91.0483 225.368 92.6443 224.948 94.3963 224.948C96.1243 224.948 97.6243 225.32 98.8963 226.064C100.168 226.808 101.116 227.744 101.74 228.872V225.272H105.052V245H101.74V241.328C101.092 242.48 100.12 243.44 98.8243 244.208C97.5523 244.952 96.0643 245.324 94.3603 245.324C92.6083 245.324 91.0243 244.892 89.6083 244.028C88.1923 243.164 87.0763 241.952 86.2603 240.392C85.4443 238.832 85.0363 237.056 85.0363 235.064ZM101.74 235.1C101.74 233.612 101.44 232.316 100.84 231.212C100.24 230.108 99.4243 229.268 98.3923 228.692C97.3843 228.092 96.2683 227.792 95.0443 227.792C93.8203 227.792 92.7043 228.08 91.6963 228.656C90.6883 229.232 89.8843 230.072 89.2843 231.176C88.6843 232.28 88.3843 233.576 88.3843 235.064C88.3843 236.576 88.6843 237.896 89.2843 239.024C89.8843 240.128 90.6883 240.98 91.6963 241.58C92.7043 242.156 93.8203 242.444 95.0443 242.444C96.2683 242.444 97.3843 242.156 98.3923 241.58C99.4243 240.98 100.24 240.128 100.84 239.024C101.44 237.896 101.74 236.588 101.74 235.1ZM117.572 245.324C116.06 245.324 114.704 245.072 113.504 244.568C112.304 244.04 111.356 243.32 110.66 242.408C109.964 241.472 109.58 240.404 109.508 239.204H112.892C112.988 240.188 113.444 240.992 114.26 241.616C115.1 242.24 116.192 242.552 117.536 242.552C118.784 242.552 119.768 242.276 120.488 241.724C121.208 241.172 121.568 240.476 121.568 239.636C121.568 238.772 121.184 238.136 120.416 237.728C119.648 237.296 118.46 236.876 116.852 236.468C115.388 236.084 114.188 235.7 113.252 235.316C112.34 234.908 111.548 234.32 110.876 233.552C110.228 232.76 109.904 231.728 109.904 230.456C109.904 229.448 110.204 228.524 110.804 227.684C111.404 226.844 112.256 226.184 113.36 225.704C114.464 225.2 115.724 224.948 117.14 224.948C119.324 224.948 121.088 225.5 122.432 226.604C123.776 227.708 124.496 229.22 124.592 231.14H121.316C121.244 230.108 120.824 229.28 120.056 228.656C119.312 228.032 118.304 227.72 117.032 227.72C115.856 227.72 114.92 227.972 114.224 228.476C113.528 228.98 113.18 229.64 113.18 230.456C113.18 231.104 113.384 231.644 113.792 232.076C114.224 232.484 114.752 232.82 115.376 233.084C116.024 233.324 116.912 233.6 118.04 233.912C119.456 234.296 120.608 234.68 121.496 235.064C122.384 235.424 123.14 235.976 123.764 236.72C124.412 237.464 124.748 238.436 124.772 239.636C124.772 240.716 124.472 241.688 123.872 242.552C123.272 243.416 122.42 244.1 121.316 244.604C120.236 245.084 118.988 245.324 117.572 245.324ZM139.189 224.912C140.677 224.912 142.021 225.236 143.221 225.884C144.421 226.508 145.357 227.456 146.029 228.728C146.725 230 147.073 231.548 147.073 233.372V245H143.833V233.84C143.833 231.872 143.341 230.372 142.357 229.34C141.373 228.284 140.029 227.756 138.325 227.756C136.597 227.756 135.217 228.296 134.185 229.376C133.177 230.456 132.673 232.028 132.673 234.092V245H129.397V218.36H132.673V228.08C133.321 227.072 134.209 226.292 135.337 225.74C136.489 225.188 137.773 224.912 139.189 224.912ZM169.834 219.908C172.57 219.908 174.934 220.424 176.926 221.456C178.942 222.464 180.478 223.916 181.534 225.812C182.614 227.708 183.154 229.94 183.154 232.508C183.154 235.076 182.614 237.308 181.534 239.204C180.478 241.076 178.942 242.516 176.926 243.524C174.934 244.508 172.57 245 169.834 245H162.022V219.908H169.834ZM169.834 242.3C173.074 242.3 175.546 241.448 177.25 239.744C178.954 238.016 179.806 235.604 179.806 232.508C179.806 229.388 178.942 226.952 177.214 225.2C175.51 223.448 173.05 222.572 169.834 222.572H165.298V242.3H169.834ZM186.251 235.064C186.251 233.048 186.659 231.284 187.475 229.772C188.291 228.236 189.407 227.048 190.823 226.208C192.263 225.368 193.859 224.948 195.611 224.948C197.339 224.948 198.839 225.32 200.111 226.064C201.383 226.808 202.331 227.744 202.955 228.872V225.272H206.267V245H202.955V241.328C202.307 242.48 201.335 243.44 200.039 244.208C198.767 244.952 197.279 245.324 195.575 245.324C193.823 245.324 192.239 244.892 190.823 244.028C189.407 243.164 188.291 241.952 187.475 240.392C186.659 238.832 186.251 237.056 186.251 235.064ZM202.955 235.1C202.955 233.612 202.655 232.316 202.055 231.212C201.455 230.108 200.639 229.268 199.607 228.692C198.599 228.092 197.483 227.792 196.259 227.792C195.035 227.792 193.919 228.08 192.911 228.656C191.903 229.232 191.099 230.072 190.499 231.176C189.899 232.28 189.599 233.576 189.599 235.064C189.599 236.576 189.899 237.896 190.499 239.024C191.099 240.128 191.903 240.98 192.911 241.58C193.919 242.156 195.035 242.444 196.259 242.444C197.483 242.444 198.599 242.156 199.607 241.58C200.639 240.98 201.455 240.128 202.055 239.024C202.655 237.896 202.955 236.588 202.955 235.1ZM219.147 241.976L225.267 225.272H228.759L221.019 245H217.203L209.463 225.272H212.991L219.147 241.976ZM249.983 234.38C249.983 235.004 249.947 235.664 249.875 236.36H234.107C234.227 238.304 234.887 239.828 236.087 240.932C237.311 242.012 238.787 242.552 240.515 242.552C241.931 242.552 243.107 242.228 244.043 241.58C245.003 240.908 245.675 240.02 246.059 238.916H249.587C249.059 240.812 248.003 242.36 246.419 243.56C244.835 244.736 242.867 245.324 240.515 245.324C238.643 245.324 236.963 244.904 235.475 244.064C234.011 243.224 232.859 242.036 232.019 240.5C231.179 238.94 230.759 237.14 230.759 235.1C230.759 233.06 231.167 231.272 231.983 229.736C232.799 228.2 233.939 227.024 235.403 226.208C236.891 225.368 238.595 224.948 240.515 224.948C242.387 224.948 244.043 225.356 245.483 226.172C246.923 226.988 248.027 228.116 248.795 229.556C249.587 230.972 249.983 232.58 249.983 234.38ZM246.599 233.696C246.599 232.448 246.323 231.38 245.771 230.492C245.219 229.58 244.463 228.896 243.503 228.44C242.567 227.96 241.523 227.72 240.371 227.72C238.715 227.72 237.299 228.248 236.123 229.304C234.971 230.36 234.311 231.824 234.143 233.696H246.599Z" fill="#D8A47F"/>
</g>
</g>
<g id="stripes1">
<line id="Line 1" x1="213.793" y1="431.8" x2="329.872" y2="315.721" stroke="#0F7173" stroke-width="8"/>
<line id="Line 2" x1="194.172" y1="419.251" x2="310.251" y2="303.172" stroke="#E12D2D" stroke-width="8"/>
</g>
<g id="stripes">
<line id="Line 1_2" x1="-12.2068" y1="100.8" x2="103.872" y2="-15.2791" stroke="#0F7173" stroke-width="8"/>
<line id="Line 2_2" x1="-31.8284" y1="88.2506" x2="84.2506" y2="-27.8284" stroke="#E12D2D" stroke-width="8"/>
</g>
<g id="stripes3">
<line id="Line 1_3" x1="329.8" y1="96.9075" x2="213.721" y2="-19.1716" stroke="#0F7173" stroke-width="8"/>
<line id="Line 2_3" x1="317.251" y1="116.529" x2="201.172" y2="0.450072" stroke="#E12D2D" stroke-width="8"/>
</g>
<g id="stripes2">
<line id="Line 1_4" x1="103.8" y1="404.907" x2="-12.2791" y2="288.828" stroke="#0F7173" stroke-width="8"/>
<line id="Line 2_4" x1="91.2506" y1="424.529" x2="-24.8284" y2="308.45" stroke="#E12D2D" stroke-width="8"/>
</g>
</g>
</g>
<defs>
<filter id="filter0_d" x="107.099" y="59.8571" width="85.803" height="32.8929" filterUnits="userSpaceOnUse" color-interpolation-filters="sRGB">
<feFlood flood-opacity="0" result="BackgroundImageFix"/>
<feColorMatrix in="SourceAlpha" type="matrix" values="0 0 0 0 0 0 0 0 0 0 0 0 0 0 0 0 0 0 127 0"/>
<feOffset dy="2"/>
<feGaussianBlur stdDeviation="2"/>
<feColorMatrix type="matrix" values="0 0 0 0 0 0 0 0 0 0 0 0 0 0 0 0 0 0 0.2 0"/>
<feBlend mode="normal" in2="BackgroundImageFix" result="effect1_dropShadow"/>
<feBlend mode="normal" in="SourceGraphic" in2="effect1_dropShadow" result="shape"/>
</filter>
<filter id="filter1_d" x="34.716" y="211" width="242.802" height="57" filterUnits="userSpaceOnUse" color-interpolation-filters="sRGB">
<feFlood flood-opacity="0" result="BackgroundImageFix"/>
<feColorMatrix in="SourceAlpha" type="matrix" values="0 0 0 0 0 0 0 0 0 0 0 0 0 0 0 0 0 0 127 0"/>
<feOffset dy="5"/>
<feGaussianBlur stdDeviation="2"/>
<feColorMatrix type="matrix" values="0 0 0 0 0 0 0 0 0 0 0 0 0 0 0 0 0 0 0.25 0"/>
<feBlend mode="normal" in2="BackgroundImageFix" result="effect1_dropShadow"/>
<feBlend mode="normal" in="SourceGraphic" in2="effect1_dropShadow" result="shape"/>
</filter>
<filter id="filter2_d" x="59.1488" y="218.36" width="194.834" height="34.964" filterUnits="userSpaceOnUse" color-interpolation-filters="sRGB">
<feFlood flood-opacity="0" result="BackgroundImageFix"/>
<feColorMatrix in="SourceAlpha" type="matrix" values="0 0 0 0 0 0 0 0 0 0 0 0 0 0 0 0 0 0 127 0"/>
<feOffset dy="4"/>
<feGaussianBlur stdDeviation="2"/>
<feColorMatrix type="matrix" values="0 0 0 0 0 0 0 0 0 0 0 0 0 0 0 0 0 0 0.25 0"/>
<feBlend mode="normal" in2="BackgroundImageFix" result="effect1_dropShadow"/>
<feBlend mode="normal" in="SourceGraphic" in2="effect1_dropShadow" result="shape"/>
</filter>
<clipPath id="clip0">
<rect width="300" height="400" rx="7" fill="white"/>
</clipPath>
</defs>
</svg>
