<svg width="300" height="400" viewBox="0 0 300 400" fill="none" xmlns="http://www.w3.org/2000/svg">
<g clip-path="url(#clip0)">
<rect width="300" height="400" fill="#0F7173"/>
<g filter="url(#filter0_d)">
<rect x="83" y="166" width="133" height="48" rx="10" fill="#0F7173"/>
<rect x="83.5" y="166.5" width="132" height="47" rx="9.5" stroke="#D8A47F"/>
</g>
<g clip-path="url(#clip1)">
<path d="M253.485 71.9959C251.779 71.9959 250.07 71.3176 248.767 69.9652L230.6 51.0449L212.437 69.9652C209.828 72.6779 205.598 72.6779 202.993 69.9652L198.954 65.7565C196.349 63.0438 196.349 58.6331 198.954 55.9197L217.116 37.0001L198.954 18.0798C196.349 15.3628 196.349 10.9521 198.954 8.2431L202.993 4.03504C205.594 1.32601 209.828 1.32165 212.433 4.03504L230.6 22.9546L248.763 4.03504C251.375 1.32165 255.606 1.32165 258.206 4.03504L262.247 8.2431C264.851 10.9565 264.851 15.3672 262.247 18.0798L244.083 37.0001L262.247 55.9197C264.851 58.6331 264.851 63.0438 262.247 65.7565L258.206 69.9652C256.904 71.3176 255.195 71.9959 253.485 71.9959V71.9959ZM230.6 43.862C231.358 43.862 232.085 44.1751 232.618 44.7343L252.799 65.7565C253.173 66.1414 253.797 66.1414 254.166 65.7565L258.206 61.5484C258.58 61.1635 258.576 60.5091 258.206 60.1205L238.025 39.102C236.909 37.9399 236.909 36.056 238.025 34.8939L258.206 13.8718C258.576 13.4868 258.58 12.8325 258.206 12.4475L254.166 8.2431C253.793 7.85817 253.173 7.85817 252.796 8.2431L232.618 29.2653C231.548 30.3801 229.652 30.3801 228.578 29.2653L208.397 8.2431C208.024 7.85817 207.399 7.85817 207.03 8.2431L202.993 12.4519C202.62 12.8361 202.624 13.4905 202.993 13.8798L223.175 34.8976C224.29 36.0596 224.29 37.9443 223.175 39.1064L202.993 60.1285C202.624 60.5134 202.62 61.1678 202.993 61.552L207.034 65.7608C207.407 66.1457 208.027 66.1457 208.405 65.7608L228.582 44.7387C229.115 44.1751 229.842 43.862 230.6 43.862V43.862Z" fill="#D8A47F"/>
</g>
<g clip-path="url(#clip2)">
<path d="M84.4846 81.9959C82.7791 81.9959 81.0695 81.3176 79.7671 79.9652L61.6001 61.0449L43.4366 79.9652C40.8283 82.6779 36.5982 82.6779 33.9934 79.9652L29.9536 75.7565C27.3488 73.0438 27.3488 68.6331 29.9536 65.9197L48.1164 47.0001L29.9536 28.0798C27.3488 25.3628 27.3488 20.9521 29.9536 18.2431L33.9934 14.035C36.594 11.326 40.8283 11.3217 43.4332 14.035L61.6001 32.9546L79.7629 14.035C82.3755 11.3217 86.6055 11.3217 89.2062 14.035L93.2466 18.2431C95.8508 20.9565 95.8508 25.3672 93.2466 28.0798L75.0831 47.0001L93.2466 65.9197C95.8508 68.6331 95.8508 73.0438 93.2466 75.7565L89.2062 79.9652C87.9045 81.3176 86.1949 81.9959 84.4846 81.9959V81.9959ZM61.6001 53.862C62.358 53.862 63.0852 54.1751 63.6179 54.7343L83.7992 75.7565C84.1729 76.1414 84.7969 76.1414 85.1665 75.7565L89.2062 71.5484C89.5799 71.1635 89.5757 70.5091 89.2062 70.1205L69.0249 49.102C67.9094 47.9399 67.9094 46.056 69.0249 44.8939L89.2062 23.8718C89.5757 23.4868 89.5799 22.8325 89.2062 22.4475L85.1665 18.2431C84.7934 17.8582 84.1729 17.8582 83.7957 18.2431L63.6179 39.2653C62.5484 40.3801 60.6519 40.3801 59.5782 39.2653L39.3969 18.2431C39.0239 17.8582 38.3992 17.8582 38.0296 18.2431L33.9934 22.4519C33.6204 22.8361 33.6238 23.4905 33.9934 23.8798L54.1747 44.8976C55.2902 46.0596 55.2902 47.9443 54.1747 49.1064L33.9934 70.1285C33.6238 70.5134 33.6204 71.1678 33.9934 71.552L38.0338 75.7608C38.4068 76.1457 39.0274 76.1457 39.4046 75.7608L59.5817 54.7387C60.115 54.1751 60.8423 53.862 61.6001 53.862V53.862Z" fill="#D8A47F"/>
</g>
<g clip-path="url(#clip3)">
<path d="M185.485 344.996C183.779 344.996 182.07 344.318 180.767 342.965L162.6 324.045L144.437 342.965C141.828 345.678 137.598 345.678 134.993 342.965L130.954 338.756C128.349 336.044 128.349 331.633 130.954 328.92L149.116 310L130.954 291.08C128.349 288.363 128.349 283.952 130.954 281.243L134.993 277.035C137.594 274.326 141.828 274.322 144.433 277.035L162.6 295.955L180.763 277.035C183.375 274.322 187.606 274.322 190.206 277.035L194.247 281.243C196.851 283.956 196.851 288.367 194.247 291.08L176.083 310L194.247 328.92C196.851 331.633 196.851 336.044 194.247 338.756L190.206 342.965C188.904 344.318 187.195 344.996 185.485 344.996V344.996ZM162.6 316.862C163.358 316.862 164.085 317.175 164.618 317.734L184.799 338.756C185.173 339.141 185.797 339.141 186.166 338.756L190.206 334.548C190.58 334.163 190.576 333.509 190.206 333.121L170.025 312.102C168.909 310.94 168.909 309.056 170.025 307.894L190.206 286.872C190.576 286.487 190.58 285.832 190.206 285.448L186.166 281.243C185.793 280.858 185.173 280.858 184.796 281.243L164.618 302.265C163.548 303.38 161.652 303.38 160.578 302.265L140.397 281.243C140.024 280.858 139.399 280.858 139.03 281.243L134.993 285.452C134.62 285.836 134.624 286.49 134.993 286.88L155.175 307.898C156.29 309.06 156.29 310.944 155.175 312.106L134.993 333.129C134.624 333.513 134.62 334.168 134.993 334.552L139.034 338.761C139.407 339.146 140.027 339.146 140.405 338.761L160.582 317.739C161.115 317.175 161.842 316.862 162.6 316.862V316.862Z" fill="#D8A47F"/>
</g>
<g clip-path="url(#clip4)">
<path d="M84.4846 379.996C82.7791 379.996 81.0695 379.318 79.7671 377.965L61.6001 359.045L43.4366 377.965C40.8283 380.678 36.5982 380.678 33.9934 377.965L29.9536 373.756C27.3488 371.044 27.3488 366.633 29.9536 363.92L48.1164 345L29.9536 326.08C27.3488 323.363 27.3488 318.952 29.9536 316.243L33.9934 312.035C36.594 309.326 40.8283 309.322 43.4332 312.035L61.6001 330.955L79.7629 312.035C82.3755 309.322 86.6055 309.322 89.2062 312.035L93.2466 316.243C95.8508 318.956 95.8508 323.367 93.2466 326.08L75.0831 345L93.2466 363.92C95.8508 366.633 95.8508 371.044 93.2466 373.756L89.2062 377.965C87.9045 379.318 86.1949 379.996 84.4846 379.996V379.996ZM61.6001 351.862C62.358 351.862 63.0852 352.175 63.6179 352.734L83.7992 373.756C84.1729 374.141 84.7969 374.141 85.1665 373.756L89.2062 369.548C89.5799 369.163 89.5757 368.509 89.2062 368.121L69.0249 347.102C67.9094 345.94 67.9094 344.056 69.0249 342.894L89.2062 321.872C89.5757 321.487 89.5799 320.832 89.2062 320.448L85.1665 316.243C84.7934 315.858 84.1729 315.858 83.7957 316.243L63.6179 337.265C62.5484 338.38 60.6519 338.38 59.5782 337.265L39.3969 316.243C39.0239 315.858 38.3992 315.858 38.0296 316.243L33.9934 320.452C33.6204 320.836 33.6238 321.49 33.9934 321.88L54.1747 342.898C55.2902 344.06 55.2902 345.944 54.1747 347.106L33.9934 368.129C33.6238 368.513 33.6204 369.168 33.9934 369.552L38.0338 373.761C38.4068 374.146 39.0274 374.146 39.4046 373.761L59.5817 352.739C60.115 352.175 60.8423 351.862 61.6001 351.862V351.862Z" fill="#D8A47F"/>
</g>
<g filter="url(#filter1_d)">
<path d="M114.798 187.472L122.502 200H118.794L112.782 190.208L107.058 200H103.422L111.09 187.472L103.386 174.908H107.058L113.106 184.736L118.866 174.908H122.538L114.798 187.472ZM155.755 200L152.479 196.688C151.255 197.96 149.947 198.908 148.555 199.532C147.163 200.132 145.591 200.432 143.839 200.432C142.111 200.432 140.575 200.12 139.231 199.496C137.911 198.872 136.879 197.984 136.135 196.832C135.415 195.68 135.055 194.336 135.055 192.8C135.055 191.048 135.547 189.512 136.531 188.192C137.539 186.848 139.015 185.792 140.959 185.024C140.191 184.112 139.639 183.272 139.303 182.504C138.967 181.736 138.799 180.896 138.799 179.984C138.799 178.928 139.063 177.98 139.591 177.14C140.143 176.276 140.923 175.604 141.931 175.124C142.939 174.644 144.103 174.404 145.423 174.404C146.719 174.404 147.847 174.656 148.807 175.16C149.767 175.664 150.487 176.372 150.967 177.284C151.447 178.172 151.663 179.168 151.615 180.272H148.339C148.363 179.288 148.087 178.52 147.511 177.968C146.935 177.392 146.191 177.104 145.279 177.104C144.319 177.104 143.539 177.38 142.939 177.932C142.363 178.46 142.075 179.144 142.075 179.984C142.075 180.704 142.267 181.4 142.651 182.072C143.059 182.744 143.731 183.572 144.667 184.556L152.155 192.08L152.803 191.072L155.251 186.968H158.779L155.827 192.08C155.419 192.8 154.939 193.556 154.387 194.348L160.039 200H155.755ZM143.839 197.624C145.135 197.624 146.299 197.372 147.331 196.868C148.387 196.364 149.383 195.584 150.319 194.528L142.939 187.112C139.867 188.288 138.331 190.148 138.331 192.692C138.331 194.108 138.835 195.284 139.843 196.22C140.875 197.156 142.207 197.624 143.839 197.624ZM184.082 200.252C181.754 200.252 179.63 199.712 177.71 198.632C175.79 197.528 174.266 196.004 173.138 194.06C172.034 192.092 171.482 189.884 171.482 187.436C171.482 184.988 172.034 182.792 173.138 180.848C174.266 178.88 175.79 177.356 177.71 176.276C179.63 175.172 181.754 174.62 184.082 174.62C186.434 174.62 188.57 175.172 190.49 176.276C192.41 177.356 193.922 178.868 195.026 180.812C196.13 182.756 196.682 184.964 196.682 187.436C196.682 189.908 196.13 192.116 195.026 194.06C193.922 196.004 192.41 197.528 190.49 198.632C188.57 199.712 186.434 200.252 184.082 200.252ZM184.082 197.408C185.834 197.408 187.406 197 188.798 196.184C190.214 195.368 191.318 194.204 192.11 192.692C192.926 191.18 193.334 189.428 193.334 187.436C193.334 185.42 192.926 183.668 192.11 182.18C191.318 180.668 190.226 179.504 188.834 178.688C187.442 177.872 185.858 177.464 184.082 177.464C182.306 177.464 180.722 177.872 179.33 178.688C177.938 179.504 176.834 180.668 176.018 182.18C175.226 183.668 174.83 185.42 174.83 187.436C174.83 189.428 175.226 191.18 176.018 192.692C176.834 194.204 177.938 195.368 179.33 196.184C180.746 197 182.33 197.408 184.082 197.408Z" fill="#D8A47F"/>
</g>
<path d="M170.605 89.6813C169.193 87.498 167.287 85.7811 164.929 84.5743C162.593 83.3967 159.686 82.7995 156.291 82.7995C152.833 82.7995 149.88 83.4759 147.516 84.8077C145.158 86.126 143.221 87.9249 141.76 90.1541C140.333 92.3312 139.315 94.8975 138.734 97.7836C138.563 98.6401 138.416 99.5215 138.297 100.404C138.196 101.152 138.72 101.841 139.469 101.942C140.216 102.043 140.905 101.518 141.006 100.77C141.118 99.9445 141.255 99.1203 141.415 98.3216C141.926 95.7807 142.812 93.5372 144.047 91.6532C145.264 89.7959 146.88 88.2958 148.854 87.1922C150.807 86.092 153.309 85.5341 156.291 85.5341C159.255 85.5341 161.747 86.0327 163.691 87.0123C165.607 87.9936 167.161 89.3912 168.308 91.1661C169.49 92.994 170.341 95.2467 170.839 97.8617C171.357 100.588 171.621 103.634 171.621 106.914C171.621 109.936 171.352 112.817 170.824 115.476C170.312 118.054 169.425 120.334 168.187 122.253C166.978 124.129 165.366 125.631 163.386 126.722C161.453 127.811 158.951 128.363 155.948 128.363C152.945 128.363 150.43 127.879 148.482 126.929C146.553 125.972 145.062 124.631 143.924 122.833C142.743 120.95 141.895 118.664 141.402 116.038C141.204 114.989 141.042 113.874 140.92 112.725C140.839 111.974 140.165 111.43 139.415 111.511C138.664 111.591 138.12 112.265 138.201 113.015C138.331 114.236 138.504 115.423 138.714 116.543C139.271 119.506 140.244 122.111 141.611 124.29C143.007 126.497 144.91 128.209 147.275 129.382C149.608 130.52 152.526 131.097 155.949 131.097C159.427 131.097 162.381 130.427 164.717 129.111C167.087 127.804 169.028 125.995 170.486 123.734C171.91 121.525 172.926 118.926 173.506 116.009C174.069 113.175 174.355 110.115 174.355 106.914C174.355 103.463 174.076 100.245 173.525 97.3507C172.962 94.3874 171.979 91.807 170.605 89.6813V89.6813Z" fill="#D8A47F"/>
<path d="M186.241 91.2002C184.9 86.8889 182.87 83.2622 180.214 80.4273C177.565 77.5619 174.206 75.4094 170.229 74.0292C166.331 72.6826 161.798 72 156.754 72C151.448 72 146.703 72.8293 142.652 74.4638C138.581 76.0958 135.111 78.494 132.34 81.5886C129.57 84.6623 127.46 88.4354 126.07 92.8029C124.696 97.1171 124 102.026 124 107.394C124 113.207 124.654 118.339 125.943 122.648C127.246 127.004 129.246 130.662 131.889 133.521C134.537 136.386 137.895 138.544 141.867 139.934C145.766 141.305 150.365 142 155.537 142C160.822 142 165.549 141.183 169.588 139.571C173.668 137.935 177.139 135.53 179.9 132.428C182.663 129.363 184.773 125.554 186.171 121.107C187.544 116.742 188.24 111.742 188.24 106.246C188.24 100.542 187.568 95.4802 186.241 91.2002V91.2002ZM183.563 120.286C182.283 124.357 180.367 127.826 177.864 130.604C175.381 133.393 172.255 135.556 168.573 137.032C164.859 138.514 160.473 139.266 155.537 139.266C150.675 139.266 146.381 138.623 142.772 137.354C139.175 136.095 136.272 134.234 133.897 131.665C131.54 129.115 129.745 125.818 128.563 121.865C127.349 117.81 126.734 112.942 126.734 107.394C126.734 102.308 127.387 97.6784 128.676 93.6326C129.947 89.6382 131.863 86.2019 134.374 83.416C136.865 80.6341 139.992 78.4761 143.672 77.0008C147.399 75.4969 151.801 74.7344 156.754 74.7344C161.493 74.7344 165.726 75.3667 169.334 76.613C172.881 77.8438 175.866 79.7517 178.213 82.2901C180.59 84.8278 182.413 88.0989 183.63 92.0112C184.875 96.0274 185.506 100.817 185.506 106.246C185.506 111.464 184.852 116.188 183.563 120.286V120.286Z" fill="#D8A47F"/>
<path d="M139.252 108.093C140.007 108.093 140.619 107.481 140.619 106.726C140.619 105.971 140.007 105.359 139.252 105.359H139.251C138.496 105.359 137.884 105.971 137.884 106.726C137.884 107.481 138.497 108.093 139.252 108.093Z" fill="#D8A47F"/>
<path d="M63.6048 134.681C62.1934 132.498 60.2865 130.781 57.9294 129.574C55.5926 128.397 52.6865 127.8 49.2915 127.8C45.8332 127.8 42.8795 128.476 40.516 129.808C38.1578 131.126 36.2212 132.925 34.7601 135.154C33.333 137.331 32.3151 139.898 31.7343 142.784C31.563 143.64 31.4156 144.521 31.2966 145.404C31.1955 146.152 31.7202 146.841 32.4685 146.942C33.2161 147.043 33.9053 146.518 34.0063 145.77C34.1177 144.944 34.2554 144.12 34.4152 143.322C34.9264 140.781 35.812 138.537 37.0468 136.653C38.2642 134.796 39.8803 133.296 41.8543 132.192C43.8069 131.092 46.309 130.534 49.2912 130.534C52.2549 130.534 54.7468 131.033 56.6906 132.012C58.6072 132.994 60.1608 134.391 61.3082 136.166C62.4902 137.994 63.3414 140.247 63.8388 142.862C64.3575 145.588 64.6205 148.634 64.6205 151.914C64.6205 154.936 64.3524 157.817 63.8237 160.476C63.3116 163.054 62.4245 165.334 61.1872 167.253C59.978 169.129 58.3662 170.631 56.3855 171.722C54.4532 172.811 51.9508 173.363 48.9485 173.363C45.9449 173.363 43.4303 172.879 41.4821 171.929C39.5534 170.972 38.0615 169.631 36.9244 167.833C35.7433 165.95 34.8946 163.664 34.4016 161.038C34.2043 159.989 34.0421 158.874 33.9195 157.725C33.8393 156.974 33.1647 156.43 32.4149 156.511C31.6642 156.591 31.1205 157.265 31.2006 158.015C31.3307 159.236 31.5037 160.423 31.7142 161.543C32.2707 164.506 33.2443 167.111 34.6109 169.29C36.0067 171.497 37.9098 173.209 40.2751 174.382C42.608 175.52 45.526 176.098 48.9486 176.098C52.4271 176.098 55.3809 175.427 57.7169 174.111C60.0875 172.804 62.0285 170.995 63.4858 168.734C64.9101 166.525 65.9263 163.926 66.5059 161.009C67.0694 158.175 67.3552 155.115 67.3552 151.914C67.3552 148.463 67.076 145.245 66.5254 142.351C65.9619 139.387 64.9791 136.807 63.6048 134.681V134.681Z" fill="#D8A47F"/>
<path d="M79.2415 136.2C77.8999 131.889 75.87 128.262 73.2144 125.427C70.5653 122.562 67.2063 120.409 63.2289 119.029C59.3313 117.683 54.7978 117 49.7544 117C44.4482 117 39.7026 117.829 35.652 119.464C31.5812 121.096 28.1106 123.494 25.3397 126.589C22.5699 129.662 20.4605 133.435 19.0702 137.803C17.6964 142.117 17 147.026 17 152.394C17 158.207 17.6537 163.339 18.943 167.648C20.2461 172.004 22.2464 175.662 24.8887 178.521C27.5375 181.386 30.8954 183.544 34.8671 184.934C38.7658 186.305 43.365 187 48.5372 187C53.8218 187 58.5486 186.183 62.5881 184.571C66.6682 182.935 70.1394 180.53 72.9003 177.428C75.6629 174.363 77.7729 170.554 79.1715 166.107C80.5441 161.742 81.2402 156.742 81.2402 151.246C81.2403 145.542 80.5679 140.48 79.2415 136.2V136.2ZM76.5633 165.286C75.2831 169.357 73.3672 172.826 70.8636 175.604C68.3812 178.393 65.2548 180.556 61.5728 182.032C57.8588 183.514 53.4731 184.266 48.5373 184.266C43.6749 184.266 39.3806 183.623 35.7724 182.354C32.175 181.095 29.2716 179.234 26.8968 176.665C24.54 174.115 22.7453 170.818 21.5626 166.865C20.3495 162.81 19.7344 157.942 19.7344 152.394C19.7344 147.308 20.3875 142.678 21.6755 138.633C22.9473 134.638 24.8634 131.202 27.3739 128.416C29.8648 125.634 32.9923 123.476 36.6723 122.001C40.399 120.497 44.8005 119.734 49.7544 119.734C54.4932 119.734 58.7263 120.367 62.3342 121.613C65.8807 122.844 68.8658 124.752 71.2127 127.29C73.5898 129.828 75.4125 133.099 76.63 137.011C77.8747 141.027 78.5059 145.817 78.5059 151.246C78.5059 156.464 77.8524 161.188 76.5633 165.286V165.286Z" fill="#D8A47F"/>
<path d="M32.2522 153.093C33.0072 153.093 33.6194 152.481 33.6194 151.726C33.6194 150.971 33.0072 150.359 32.2522 150.359H32.2511C31.4961 150.359 30.8845 150.971 30.8845 151.726C30.8845 152.481 31.4972 153.093 32.2522 153.093Z" fill="#D8A47F"/>
<path d="M282.605 231.681C281.193 229.498 279.287 227.781 276.929 226.574C274.593 225.397 271.686 224.8 268.291 224.8C264.833 224.8 261.88 225.476 259.516 226.808C257.158 228.126 255.221 229.925 253.76 232.154C252.333 234.331 251.315 236.898 250.734 239.784C250.563 240.64 250.416 241.521 250.297 242.404C250.196 243.152 250.72 243.841 251.469 243.942C252.216 244.043 252.905 243.518 253.006 242.77C253.118 241.944 253.255 241.12 253.415 240.322C253.926 237.781 254.812 235.537 256.047 233.653C257.264 231.796 258.88 230.296 260.854 229.192C262.807 228.092 265.309 227.534 268.291 227.534C271.255 227.534 273.747 228.033 275.691 229.012C277.607 229.994 279.161 231.391 280.308 233.166C281.49 234.994 282.341 237.247 282.839 239.862C283.357 242.588 283.621 245.634 283.621 248.914C283.621 251.936 283.352 254.817 282.824 257.476C282.312 260.054 281.425 262.334 280.187 264.253C278.978 266.129 277.366 267.631 275.386 268.722C273.453 269.811 270.951 270.363 267.948 270.363C264.945 270.363 262.43 269.879 260.482 268.929C258.553 267.972 257.062 266.631 255.924 264.833C254.743 262.95 253.895 260.664 253.402 258.038C253.204 256.989 253.042 255.874 252.92 254.725C252.839 253.974 252.165 253.43 251.415 253.511C250.664 253.591 250.12 254.265 250.201 255.015C250.331 256.236 250.504 257.423 250.714 258.543C251.271 261.506 252.244 264.111 253.611 266.29C255.007 268.497 256.91 270.209 259.275 271.382C261.608 272.52 264.526 273.098 267.949 273.098C271.427 273.098 274.381 272.427 276.717 271.111C279.087 269.804 281.028 267.995 282.486 265.734C283.91 263.525 284.926 260.926 285.506 258.009C286.069 255.175 286.355 252.115 286.355 248.914C286.355 245.463 286.076 242.245 285.525 239.351C284.962 236.387 283.979 233.807 282.605 231.681V231.681Z" fill="#D8A47F"/>
<path d="M298.241 233.2C296.9 228.889 294.87 225.262 292.214 222.427C289.565 219.562 286.206 217.409 282.229 216.029C278.331 214.683 273.798 214 268.754 214C263.448 214 258.703 214.829 254.652 216.464C250.581 218.096 247.111 220.494 244.34 223.589C241.57 226.662 239.46 230.435 238.07 234.803C236.696 239.117 236 244.026 236 249.394C236 255.207 236.654 260.339 237.943 264.648C239.246 269.004 241.246 272.662 243.889 275.521C246.537 278.386 249.895 280.544 253.867 281.934C257.766 283.305 262.365 284 267.537 284C272.822 284 277.549 283.183 281.588 281.571C285.668 279.935 289.139 277.53 291.9 274.428C294.663 271.363 296.773 267.554 298.171 263.107C299.544 258.742 300.24 253.742 300.24 248.246C300.24 242.542 299.568 237.48 298.241 233.2V233.2ZM295.563 262.286C294.283 266.357 292.367 269.826 289.864 272.604C287.381 275.393 284.255 277.556 280.573 279.032C276.859 280.514 272.473 281.266 267.537 281.266C262.675 281.266 258.381 280.623 254.772 279.354C251.175 278.095 248.272 276.234 245.897 273.665C243.54 271.115 241.745 267.818 240.563 263.865C239.349 259.81 238.734 254.942 238.734 249.394C238.734 244.308 239.387 239.678 240.676 235.633C241.947 231.638 243.863 228.202 246.374 225.416C248.865 222.634 251.992 220.476 255.672 219.001C259.399 217.497 263.801 216.734 268.754 216.734C273.493 216.734 277.726 217.367 281.334 218.613C284.881 219.844 287.866 221.752 290.213 224.29C292.59 226.828 294.413 230.099 295.63 234.011C296.875 238.027 297.506 242.817 297.506 248.246C297.506 253.464 296.852 258.188 295.563 262.286V262.286Z" fill="#D8A47F"/>
<path d="M251.252 250.093C252.007 250.093 252.619 249.481 252.619 248.726C252.619 247.971 252.007 247.359 251.252 247.359H251.251C250.496 247.359 249.884 247.971 249.884 248.726C249.884 249.481 250.497 250.093 251.252 250.093Z" fill="#D8A47F"/>
<path d="M77.6048 231.681C76.1934 229.498 74.2865 227.781 71.9294 226.574C69.5926 225.397 66.6865 224.8 63.2915 224.8C59.8332 224.8 56.8795 225.476 54.516 226.808C52.1578 228.126 50.2212 229.925 48.7601 232.154C47.333 234.331 46.3151 236.898 45.7343 239.784C45.563 240.64 45.4156 241.521 45.2966 242.404C45.1955 243.152 45.7202 243.841 46.4685 243.942C47.2161 244.043 47.9053 243.518 48.0063 242.77C48.1177 241.944 48.2554 241.12 48.4152 240.322C48.9264 237.781 49.812 235.537 51.0468 233.653C52.2642 231.796 53.8803 230.296 55.8543 229.192C57.8069 228.092 60.309 227.534 63.2912 227.534C66.2549 227.534 68.7468 228.033 70.6906 229.012C72.6072 229.994 74.1608 231.391 75.3082 233.166C76.4902 234.994 77.3414 237.247 77.8388 239.862C78.3575 242.588 78.6205 245.634 78.6205 248.914C78.6205 251.936 78.3524 254.817 77.8237 257.476C77.3116 260.054 76.4245 262.334 75.1872 264.253C73.978 266.129 72.3662 267.631 70.3855 268.722C68.4532 269.811 65.9508 270.363 62.9485 270.363C59.9449 270.363 57.4303 269.879 55.4821 268.929C53.5534 267.972 52.0615 266.631 50.9244 264.833C49.7433 262.95 48.8946 260.664 48.4016 258.038C48.2043 256.989 48.0421 255.874 47.9195 254.725C47.8393 253.974 47.1647 253.43 46.4149 253.511C45.6642 253.591 45.1205 254.265 45.2006 255.015C45.3307 256.236 45.5037 257.423 45.7142 258.543C46.2707 261.506 47.2443 264.111 48.6109 266.29C50.0067 268.497 51.9098 270.209 54.2751 271.382C56.608 272.52 59.526 273.098 62.9486 273.098C66.4271 273.098 69.3809 272.427 71.7169 271.111C74.0875 269.804 76.0285 267.995 77.4858 265.734C78.9101 263.525 79.9263 260.926 80.5059 258.009C81.0694 255.175 81.3552 252.115 81.3552 248.914C81.3552 245.463 81.076 242.245 80.5254 239.351C79.9619 236.387 78.9791 233.807 77.6048 231.681V231.681Z" fill="#D8A47F"/>
<path d="M93.2415 233.2C91.8999 228.889 89.87 225.262 87.2144 222.427C84.5653 219.562 81.2063 217.409 77.2289 216.029C73.3313 214.683 68.7978 214 63.7544 214C58.4482 214 53.7026 214.829 49.652 216.464C45.5812 218.096 42.1106 220.494 39.3397 223.589C36.5699 226.662 34.4605 230.435 33.0702 234.803C31.6964 239.117 31 244.026 31 249.394C31 255.207 31.6537 260.339 32.943 264.648C34.2461 269.004 36.2464 272.662 38.8887 275.521C41.5375 278.386 44.8954 280.544 48.8671 281.934C52.7658 283.305 57.365 284 62.5372 284C67.8218 284 72.5486 283.183 76.5881 281.571C80.6682 279.935 84.1394 277.53 86.9003 274.428C89.6629 271.363 91.7729 267.554 93.1715 263.107C94.5441 258.742 95.2402 253.742 95.2402 248.246C95.2403 242.542 94.5679 237.48 93.2415 233.2V233.2ZM90.5633 262.286C89.2831 266.357 87.3672 269.826 84.8636 272.604C82.3812 275.393 79.2548 277.556 75.5728 279.032C71.8588 280.514 67.4731 281.266 62.5373 281.266C57.6749 281.266 53.3806 280.623 49.7724 279.354C46.175 278.095 43.2716 276.234 40.8968 273.665C38.54 271.115 36.7453 267.818 35.5626 263.865C34.3495 259.81 33.7344 254.942 33.7344 249.394C33.7344 244.308 34.3875 239.678 35.6755 235.633C36.9473 231.638 38.8634 228.202 41.3739 225.416C43.8648 222.634 46.9923 220.476 50.6723 219.001C54.399 217.497 58.8005 216.734 63.7544 216.734C68.4932 216.734 72.7263 217.367 76.3342 218.613C79.8807 219.844 82.8658 221.752 85.2127 224.29C87.5898 226.828 89.4125 230.099 90.63 234.011C91.8747 238.027 92.5059 242.817 92.5059 248.246C92.5059 253.464 91.8524 258.188 90.5633 262.286V262.286Z" fill="#D8A47F"/>
<path d="M46.2522 250.093C47.0072 250.093 47.6194 249.481 47.6194 248.726C47.6194 247.971 47.0072 247.359 46.2522 247.359H46.2511C45.4961 247.359 44.8845 247.971 44.8845 248.726C44.8845 249.481 45.4972 250.093 46.2522 250.093Z" fill="#D8A47F"/>
<path d="M254.605 338.681C253.193 336.498 251.287 334.781 248.929 333.574C246.593 332.397 243.686 331.8 240.291 331.8C236.833 331.8 233.88 332.476 231.516 333.808C229.158 335.126 227.221 336.925 225.76 339.154C224.333 341.331 223.315 343.898 222.734 346.784C222.563 347.64 222.416 348.521 222.297 349.404C222.196 350.152 222.72 350.841 223.469 350.942C224.216 351.043 224.905 350.518 225.006 349.77C225.118 348.944 225.255 348.12 225.415 347.322C225.926 344.781 226.812 342.537 228.047 340.653C229.264 338.796 230.88 337.296 232.854 336.192C234.807 335.092 237.309 334.534 240.291 334.534C243.255 334.534 245.747 335.033 247.691 336.012C249.607 336.994 251.161 338.391 252.308 340.166C253.49 341.994 254.341 344.247 254.839 346.862C255.357 349.588 255.621 352.634 255.621 355.914C255.621 358.936 255.352 361.817 254.824 364.476C254.312 367.054 253.425 369.334 252.187 371.253C250.978 373.129 249.366 374.631 247.386 375.722C245.453 376.811 242.951 377.363 239.948 377.363C236.945 377.363 234.43 376.879 232.482 375.929C230.553 374.972 229.062 373.631 227.924 371.833C226.743 369.95 225.895 367.664 225.402 365.038C225.204 363.989 225.042 362.874 224.92 361.725C224.839 360.974 224.165 360.43 223.415 360.511C222.664 360.591 222.12 361.265 222.201 362.015C222.331 363.236 222.504 364.423 222.714 365.543C223.271 368.506 224.244 371.111 225.611 373.29C227.007 375.497 228.91 377.209 231.275 378.382C233.608 379.52 236.526 380.098 239.949 380.098C243.427 380.098 246.381 379.427 248.717 378.111C251.087 376.804 253.028 374.995 254.486 372.734C255.91 370.525 256.926 367.926 257.506 365.009C258.069 362.175 258.355 359.115 258.355 355.914C258.355 352.463 258.076 349.245 257.525 346.351C256.962 343.387 255.979 340.807 254.605 338.681V338.681Z" fill="#D8A47F"/>
<path d="M270.241 340.2C268.9 335.889 266.87 332.262 264.214 329.427C261.565 326.562 258.206 324.409 254.229 323.029C250.331 321.683 245.798 321 240.754 321C235.448 321 230.703 321.829 226.652 323.464C222.581 325.096 219.111 327.494 216.34 330.589C213.57 333.662 211.46 337.435 210.07 341.803C208.696 346.117 208 351.026 208 356.394C208 362.207 208.654 367.339 209.943 371.648C211.246 376.004 213.246 379.662 215.889 382.521C218.537 385.386 221.895 387.544 225.867 388.934C229.766 390.305 234.365 391 239.537 391C244.822 391 249.549 390.183 253.588 388.571C257.668 386.935 261.139 384.53 263.9 381.428C266.663 378.363 268.773 374.554 270.171 370.107C271.544 365.742 272.24 360.742 272.24 355.246C272.24 349.542 271.568 344.48 270.241 340.2V340.2ZM267.563 369.286C266.283 373.357 264.367 376.826 261.864 379.604C259.381 382.393 256.255 384.556 252.573 386.032C248.859 387.514 244.473 388.266 239.537 388.266C234.675 388.266 230.381 387.623 226.772 386.354C223.175 385.095 220.272 383.234 217.897 380.665C215.54 378.115 213.745 374.818 212.563 370.865C211.349 366.81 210.734 361.942 210.734 356.394C210.734 351.308 211.387 346.678 212.676 342.633C213.947 338.638 215.863 335.202 218.374 332.416C220.865 329.634 223.992 327.476 227.672 326.001C231.399 324.497 235.801 323.734 240.754 323.734C245.493 323.734 249.726 324.367 253.334 325.613C256.881 326.844 259.866 328.752 262.213 331.29C264.59 333.828 266.413 337.099 267.63 341.011C268.875 345.027 269.506 349.817 269.506 355.246C269.506 360.464 268.852 365.188 267.563 369.286V369.286Z" fill="#D8A47F"/>
<path d="M223.252 357.093C224.007 357.093 224.619 356.481 224.619 355.726C224.619 354.971 224.007 354.359 223.252 354.359H223.251C222.496 354.359 221.884 354.971 221.884 355.726C221.884 356.481 222.497 357.093 223.252 357.093Z" fill="#D8A47F"/>
<path d="M278.485 154.996C276.779 154.996 275.07 154.318 273.767 152.965L255.6 134.045L237.437 152.965C234.828 155.678 230.598 155.678 227.993 152.965L223.954 148.756C221.349 146.044 221.349 141.633 223.954 138.92L242.116 120L223.954 101.08C221.349 98.3628 221.349 93.9521 223.954 91.2431L227.993 87.035C230.594 84.326 234.828 84.3217 237.433 87.035L255.6 105.955L273.763 87.035C276.375 84.3217 280.606 84.3217 283.206 87.035L287.247 91.2431C289.851 93.9565 289.851 98.3672 287.247 101.08L269.083 120L287.247 138.92C289.851 141.633 289.851 146.044 287.247 148.756L283.206 152.965C281.904 154.318 280.195 154.996 278.485 154.996V154.996ZM255.6 126.862C256.358 126.862 257.085 127.175 257.618 127.734L277.799 148.756C278.173 149.141 278.797 149.141 279.166 148.756L283.206 144.548C283.58 144.163 283.576 143.509 283.206 143.121L263.025 122.102C261.909 120.94 261.909 119.056 263.025 117.894L283.206 96.8718C283.576 96.4868 283.58 95.8325 283.206 95.4475L279.166 91.2431C278.793 90.8582 278.173 90.8582 277.796 91.2431L257.618 112.265C256.548 113.38 254.652 113.38 253.578 112.265L233.397 91.2431C233.024 90.8582 232.399 90.8582 232.03 91.2431L227.993 95.4519C227.62 95.8361 227.624 96.4905 227.993 96.8798L248.175 117.898C249.29 119.06 249.29 120.944 248.175 122.106L227.993 143.129C227.624 143.513 227.62 144.168 227.993 144.552L232.034 148.761C232.407 149.146 233.027 149.146 233.405 148.761L253.582 127.739C254.115 127.175 254.842 126.862 255.6 126.862V126.862Z" fill="#D8A47F"/>
</g>
<defs>
<filter id="filter0_d" x="79" y="166" width="141" height="57" filterUnits="userSpaceOnUse" color-interpolation-filters="sRGB">
<feFlood flood-opacity="0" result="BackgroundImageFix"/>
<feColorMatrix in="SourceAlpha" type="matrix" values="0 0 0 0 0 0 0 0 0 0 0 0 0 0 0 0 0 0 127 0"/>
<feOffset dy="5"/>
<feGaussianBlur stdDeviation="2"/>
<feColorMatrix type="matrix" values="0 0 0 0 0 0 0 0 0 0 0 0 0 0 0 0 0 0 0.25 0"/>
<feBlend mode="normal" in2="BackgroundImageFix" result="effect1_dropShadow"/>
<feBlend mode="normal" in="SourceGraphic" in2="effect1_dropShadow" result="shape"/>
</filter>
<filter id="filter1_d" x="99.3856" y="174.404" width="101.296" height="34.028" filterUnits="userSpaceOnUse" color-interpolation-filters="sRGB">
<feFlood flood-opacity="0" result="BackgroundImageFix"/>
<feColorMatrix in="SourceAlpha" type="matrix" values="0 0 0 0 0 0 0 0 0 0 0 0 0 0 0 0 0 0 127 0"/>
<feOffset dy="4"/>
<feGaussianBlur stdDeviation="2"/>
<feColorMatrix type="matrix" values="0 0 0 0 0 0 0 0 0 0 0 0 0 0 0 0 0 0 0.25 0"/>
<feBlend mode="normal" in2="BackgroundImageFix" result="effect1_dropShadow"/>
<feBlend mode="normal" in="SourceGraphic" in2="effect1_dropShadow" result="shape"/>
</filter>
<clipPath id="clip0">
<rect width="300" height="400" fill="white"/>
</clipPath>
<clipPath id="clip1">
<rect width="67.2" height="70" fill="white" transform="translate(197 2)"/>
</clipPath>
<clipPath id="clip2">
<rect width="67.2" height="70" fill="white" transform="translate(28 12)"/>
</clipPath>
<clipPath id="clip3">
<rect width="67.2" height="70" fill="white" transform="translate(129 275)"/>
</clipPath>
<clipPath id="clip4">
<rect width="67.2" height="70" fill="white" transform="translate(28 310)"/>
</clipPath>
</defs>
</svg>
